<svg xmlns="http://www.w3.org/2000/svg" xmlns:xlink="http://www.w3.org/1999/xlink" viewBox="0 0 6381.35 1979"><defs><style>.cls-1{fill:#61ffd6;}.cls-2{fill:url(#linear-gradient);}.cls-3{fill:url(#linear-gradient-11);}.cls-4{fill:url(#linear-gradient-12);}.cls-5{fill:url(#linear-gradient-16);}</style><linearGradient id="linear-gradient" x1="3602.27" y1="1118.79" x2="6376.87" y2="1118.79" gradientUnits="userSpaceOnUse"><stop offset="0" stop-color="#4de6e8"/><stop offset="1" stop-color="#61ffd6"/></linearGradient><linearGradient id="linear-gradient-11" x1="6208.94" y1="1069.46" x2="6271.81" y2="1069.46" xlink:href="#linear-gradient"/><linearGradient id="linear-gradient-12" x1="4007.35" y1="1309.38" x2="5546.59" y2="1309.38" xlink:href="#linear-gradient"/><linearGradient id="linear-gradient-16" x1="2608.15" y1="965.86" x2="3504.18" y2="965.86" xlink:href="#linear-gradient"/></defs><title>LOGO-FLAT-HORIZONTAL</title><g id="Layer_5" data-name="Layer 5"><path class="cls-1" d="M1000,10.5c-546.49,0-989.5,443-989.5,989.5s443,989.5,989.5,989.5,989.5-443,989.5-989.5S1546.49,10.5,1000,10.5Zm584.54,904.2a42.65,42.65,0,1,1-42.65,42.65A42.65,42.65,0,0,1,1584.54,914.7Zm-242.07,0a42.65,42.65,0,1,1-42.65,42.65A42.66,42.66,0,0,1,1342.47,914.7ZM785.06,1246.36q-9,37.52-41.95,57.68-156.93,96.59-335.85,53.58l.37-1.53a384,384,0,0,1-46.14-16.72Q192.92,1266,125.58,1094.71q-67.57-171.8,6-339.81,73.19-169.1,244.43-236.46t340,6.61q35.4,15.42,49.53,51.32t-1.3,71.31q-15.2,36-51.11,50.08-36.45,14.34-72.08-1.63-97.75-42.55-196.63-3.68T303.05,829.09q-42.57,97.76-3.46,197.19,38.9,98.9,136.64,141.45a283.47,283.47,0,0,0,31.44,11.57q94,16.8,177.53-34.33,33.07-20.76,71.17-11.59,37.5,9,57.54,42.53Q794.07,1208.83,785.06,1246.36Zm234.18-378.28c-46.45,0-84.11-55.65-84.11-124.29s37.66-124.28,84.11-124.28,84.11,55.65,84.11,124.28S1065.69,868.08,1019.24,868.08Zm818.52,424.15c-36.73,168.41-186.69,294.51-366.12,294.51s-329.39-126.1-366.11-294.51a66.14,66.14,0,0,1,64.64-80.2h602.95A66.15,66.15,0,0,1,1837.76,1292.23Zm-25.44-424.15c-46.45,0-84.11-55.65-84.11-124.29s37.66-124.28,84.11-124.28,84.11,55.65,84.11,124.28S1858.77,868.08,1812.32,868.08Z" transform="translate(-10.5 -10.5)"/></g><g id="Layer_7" data-name="Layer 7"><path class="cls-2" d="M3779.41,876.08l104.05-103.84a34.53,34.53,0,0,1,17.35-9.54,34.39,34.39,0,0,1,35.12,14.53,33.39,33.39,0,0,1,5.85,19.08v256a34.18,34.18,0,0,1-58.32,24.28,33.06,33.06,0,0,1-10-24.28V878.68l-69.8,69.81a34.28,34.28,0,0,1-48.34,0l-69.81-69.81v173.64a34.14,34.14,0,1,1-68.28,0v-256a33.39,33.39,0,0,1,5.85-19.08A33.83,33.83,0,0,1,3658,762.7a34.54,34.54,0,0,1,17.56,9.54Z" transform="translate(-10.5 -10.5)"/><path class="cls-2" d="M4044.09,1086.58a34.06,34.06,0,0,1-34.25-34.26v-256a34.42,34.42,0,0,1,34.25-34.26H4172q49.42,0,84.54,35.12t35.12,84.55q0,49.42-35.12,84.33-35.11,35.12-84.54,35.11h-93.87v51.16a34.06,34.06,0,0,1-34,34.26Zm179.28-204.86A51.82,51.82,0,0,0,4172,830.34h-93.87V932.88H4172a49.32,49.32,0,0,0,36.2-15Q4223.37,902.75,4223.37,881.72Z" transform="translate(-10.5 -10.5)"/><path class="cls-2" d="M4377.07,1482.16a34.06,34.06,0,0,1-34.25-34.26V796.31a34.42,34.42,0,0,1,34.25-34.26,32.46,32.46,0,0,1,24.06,10.19,32.79,32.79,0,0,1,10,24.07v617.56h136.57a33.53,33.53,0,0,1,24.28,10,34.26,34.26,0,0,1,0,48.34,33.5,33.5,0,0,1-24.28,10Z" transform="translate(-10.5 -10.5)"/><path class="cls-2" d="M4472.81,1076.27a32.17,32.17,0,0,1-17.13-19.73,32.59,32.59,0,0,1,1.74-26l128.12-256.24a34.08,34.08,0,0,1,61.13,0l127.9,256.24a32,32,0,0,1,2,26,33.05,33.05,0,0,1-17.12,19.73,32.66,32.66,0,0,1-15.18,3.69,33.94,33.94,0,0,1-30.57-19.08l-22.76-45.09H4541.1l-22.55,45.09a32.18,32.18,0,0,1-19.73,17.12A32.59,32.59,0,0,1,4472.81,1076.27ZM4575.35,947.5h81.51L4616.1,866Z" transform="translate(-10.5 -10.5)"/><path class="cls-2" d="M4966,1080q-67.21,0-114.68-47.48T4803.83,917.8q0-67.41,47.48-114.68,47.47-47.68,114.68-47.69t114.67,47.69a34,34,0,0,1,0,48.13,33.76,33.76,0,0,1-48.34,0q-27.54-27.53-66.33-27.53t-66.34,27.53q-27.54,27.54-27.53,66.55,0,38.81,27.53,66.34t66.34,27.53q38.79,0,66.33-27.53a34.18,34.18,0,0,1,48.34,48.34Q5033.19,1080,4966,1080Z" transform="translate(-10.5 -10.5)"/><path class="cls-2" d="M5171.05,1080a34.06,34.06,0,0,1-34.25-34.26v-256a34.42,34.42,0,0,1,34.25-34.25h213.32a33.18,33.18,0,0,1,24.28,10.19,34,34,0,0,1,0,48.13,33.52,33.52,0,0,1-24.28,10H5205.09v59.83h136.57a33.54,33.54,0,0,1,24.28,10,34.29,34.29,0,0,1,0,48.35,33.54,33.54,0,0,1-24.28,10H5205.09v59.83h179.28a33.56,33.56,0,0,1,24.28,10,34.28,34.28,0,0,1,0,48.34,33.53,33.53,0,0,1-24.28,10Z" transform="translate(-10.5 -10.5)"/><path class="cls-2" d="M5492.32,757.6a34.29,34.29,0,0,1,37.94,10.19L5683.31,951.4V789.68a32.78,32.78,0,0,1,10-24.06,32.44,32.44,0,0,1,24.06-10.19,33.16,33.16,0,0,1,24.28,10.19,32.78,32.78,0,0,1,10,24.06v256a33.38,33.38,0,0,1-6.28,19.73,32.62,32.62,0,0,1-16.26,12.57,35.58,35.58,0,0,1-11.71,2,32.44,32.44,0,0,1-26.23-12.36L5538.06,884V1045.7a34.14,34.14,0,1,1-68.28,0v-256a34.1,34.1,0,0,1,22.54-32.08Z" transform="translate(-10.5 -10.5)"/><path class="cls-2" d="M5964.9,1080q-67.2,0-114.67-47.48T5802.75,917.8q0-67.41,47.48-114.68,47.48-47.68,114.67-47.69t114.68,47.69a34,34,0,0,1,0,48.13,33.76,33.76,0,0,1-48.34,0q-27.54-27.53-66.34-27.53t-66.33,27.53Q5871,878.79,5871,917.8q0,38.81,27.53,66.34t66.33,27.53q38.81,0,66.34-27.53a34.18,34.18,0,0,1,48.34,48.34Q6032.11,1080,5964.9,1080Z" transform="translate(-10.5 -10.5)"/><path class="cls-2" d="M6375.7,760.64a33.49,33.49,0,0,1,15.17,21.24,32.43,32.43,0,0,1-4.33,25.8L6285.09,970.26l-.07,31.15a33.06,33.06,0,0,1-10,24.28,33.52,33.52,0,0,1-24.28,10,34.06,34.06,0,0,1-34-34.25l.07-31.15L6115.13,807.68a34.16,34.16,0,0,1,36.63-51.38A32.86,32.86,0,0,1,6173,771.47l77.82,124.44,77.83-124.44a32.81,32.81,0,0,1,21.24-15.17A33.64,33.64,0,0,1,6375.7,760.64Z" transform="translate(-10.5 -10.5)"/><circle class="cls-2" cx="6240.38" cy="1069.46" r="31.43"/><circle class="cls-3" cx="6240.38" cy="1069.46" r="31.43"/><path class="cls-4" d="M4169.5,1471.64q-67.2,0-114.68-47.47t-47.47-114.68q0-67.42,47.47-114.68,47.47-47.68,114.68-47.69t114.68,47.69a34,34,0,0,1,0,48.13,33.78,33.78,0,0,1-48.34,0q-27.54-27.54-66.34-27.54t-66.33,27.54q-27.54,27.52-27.54,66.55,0,38.8,27.54,66.33t66.33,27.53q38.81,0,66.34-27.53a34.19,34.19,0,0,1,48.34,48.35Q4236.71,1471.65,4169.5,1471.64Z" transform="translate(-10.5 -10.5)"/><path class="cls-4" d="M4617.91,1468a32.15,32.15,0,0,1-17.13-19.72,32.62,32.62,0,0,1,1.74-26L4730.64,1166a34.07,34.07,0,0,1,61.13,0l127.9,256.23a32,32,0,0,1,1.95,26,33,33,0,0,1-17.13,19.72,32.59,32.59,0,0,1-15.17,3.69,33.87,33.87,0,0,1-30.57-19.08L4836,1407.47H4686.2l-22.55,45.09a32.2,32.2,0,0,1-19.73,17.13A32.59,32.59,0,0,1,4617.91,1468Zm102.54-128.76H4802l-40.76-81.51Z" transform="translate(-10.5 -10.5)"/><path class="cls-4" d="M5132.55,1403.35a28.63,28.63,0,0,0,21-8.67,29,29,0,0,0,8.89-21.24,30.36,30.36,0,0,0-29.91-29.92h-85.42q-40.53,0-69.37-28.83-28.83-28.62-28.83-69.37,0-40.53,28.83-69.37t69.37-28.83H5196.5a33.18,33.18,0,0,1,24.28,10.19,34,34,0,0,1,0,48.12,33.52,33.52,0,0,1-24.28,10H5047.13a30.36,30.36,0,0,0-29.91,29.92,29,29,0,0,0,8.89,21.24,28.58,28.58,0,0,0,21,8.68h85.42q40.53,0,69.37,28.83t28.83,69.37q0,40.53-28.83,69.37t-69.37,28.83H4983.18a34.15,34.15,0,1,1,0-68.29Z" transform="translate(-10.5 -10.5)"/><path class="cls-4" d="M5448.39,1403.35a28.64,28.64,0,0,0,21-8.67,29,29,0,0,0,8.89-21.24,30.36,30.36,0,0,0-29.92-29.92H5363q-40.55,0-69.37-28.83-28.83-28.62-28.83-69.37,0-40.53,28.83-69.37t69.37-28.83h149.36a33.16,33.16,0,0,1,24.28,10.19,34,34,0,0,1,0,48.12,33.5,33.5,0,0,1-24.28,10H5363a30.36,30.36,0,0,0-29.92,29.92,29,29,0,0,0,8.89,21.24,28.61,28.61,0,0,0,21,8.68h85.41q40.53,0,69.37,28.83t28.83,69.37q0,40.53-28.83,69.37t-69.37,28.83H5299a34.15,34.15,0,1,1,0-68.29Z" transform="translate(-10.5 -10.5)"/><path class="cls-5" d="M3056.16,517.84c-247.43,0-448,200.59-448,448s200.58,448,448,448,448-200.58,448-448S3303.59,517.84,3056.16,517.84Zm264.66,409.4a19.31,19.31,0,1,1-19.31,19.31A19.3,19.3,0,0,1,3320.82,927.24Zm-109.6,0a19.31,19.31,0,1,1-19.31,19.31A19.31,19.31,0,0,1,3211.22,927.24ZM2958.84,1077.4a40.66,40.66,0,0,1-19,26.12q-71.05,43.73-152.06,24.25l.17-.7a175.05,175.05,0,0,1-20.9-7.56q-76.3-33.24-106.81-110.77Q2629.67,931,2663,854.89q33.14-76.57,110.67-107.07t154,3a42.19,42.19,0,0,1,21.84,55.53,41.88,41.88,0,0,1-55.78,21.94q-44.26-19.28-89-1.67t-64,61.87q-19.28,44.25-1.57,89.27,17.61,44.78,61.86,64a129.9,129.9,0,0,0,14.24,5.24q42.56,7.61,80.38-15.55a42.33,42.33,0,0,1,63.32,45.91Zm106-171.27c-21,0-38.09-25.2-38.09-56.27s17.05-56.28,38.09-56.28,38.08,25.2,38.08,56.28S3085.91,906.13,3064.88,906.13Zm370.59,192a169.71,169.71,0,0,1-331.53,0,30,30,0,0,1,29.27-36.31h273A30,30,0,0,1,3435.47,1098.17Zm-11.52-192c-21,0-38.08-25.2-38.08-56.27s17.05-56.28,38.08-56.28,38.08,25.2,38.08,56.28S3445,906.13,3424,906.13Z" transform="translate(-10.5 -10.5)"/></g><g id="CÓPIAS"><path class="cls-1" d="M3779.41,876.08l104.05-103.84a34.53,34.53,0,0,1,17.35-9.54,34.39,34.39,0,0,1,35.12,14.53,33.39,33.39,0,0,1,5.85,19.08v256a34.18,34.18,0,0,1-58.32,24.28,33.06,33.06,0,0,1-10-24.28V878.68l-69.8,69.81a34.28,34.28,0,0,1-48.34,0l-69.81-69.81v173.64a34.14,34.14,0,1,1-68.28,0v-256a33.39,33.39,0,0,1,5.85-19.08A33.83,33.83,0,0,1,3658,762.7a34.54,34.54,0,0,1,17.56,9.54Z" transform="translate(-10.5 -10.5)"/><path class="cls-1" d="M4044.09,1086.58a34.06,34.06,0,0,1-34.25-34.26v-256a34.42,34.42,0,0,1,34.25-34.26H4172q49.42,0,84.54,35.12t35.12,84.55q0,49.42-35.12,84.33-35.11,35.12-84.54,35.11h-93.87v51.16a34.06,34.06,0,0,1-34,34.26Zm179.28-204.86A51.82,51.82,0,0,0,4172,830.34h-93.87V932.88H4172a49.32,49.32,0,0,0,36.2-15Q4223.37,902.75,4223.37,881.72Z" transform="translate(-10.5 -10.5)"/><path class="cls-1" d="M4377.07,1482.16a34.06,34.06,0,0,1-34.25-34.26V796.31a34.42,34.42,0,0,1,34.25-34.26,32.46,32.46,0,0,1,24.06,10.19,32.79,32.79,0,0,1,10,24.07v617.56h136.57a33.53,33.53,0,0,1,24.28,10,34.26,34.26,0,0,1,0,48.34,33.5,33.5,0,0,1-24.28,10Z" transform="translate(-10.5 -10.5)"/><path class="cls-1" d="M4472.81,1076.27a32.17,32.17,0,0,1-17.13-19.73,32.59,32.59,0,0,1,1.74-26l128.12-256.24a34.08,34.08,0,0,1,61.13,0l127.9,256.24a32,32,0,0,1,2,26,33.05,33.05,0,0,1-17.12,19.73,32.66,32.66,0,0,1-15.18,3.69,33.94,33.94,0,0,1-30.57-19.08l-22.76-45.09H4541.1l-22.55,45.09a32.18,32.18,0,0,1-19.73,17.12A32.59,32.59,0,0,1,4472.81,1076.27ZM4575.35,947.5h81.51L4616.1,866Z" transform="translate(-10.5 -10.5)"/><path class="cls-1" d="M4966,1080q-67.21,0-114.68-47.48T4803.83,917.8q0-67.41,47.48-114.68,47.47-47.68,114.68-47.69t114.67,47.69a34,34,0,0,1,0,48.13,33.76,33.76,0,0,1-48.34,0q-27.54-27.53-66.33-27.53t-66.34,27.53q-27.54,27.54-27.53,66.55,0,38.81,27.53,66.34t66.34,27.53q38.79,0,66.33-27.53a34.18,34.18,0,0,1,48.34,48.34Q5033.19,1080,4966,1080Z" transform="translate(-10.5 -10.5)"/><path class="cls-1" d="M5171.05,1080a34.06,34.06,0,0,1-34.25-34.26v-256a34.42,34.42,0,0,1,34.25-34.25h213.32a33.18,33.18,0,0,1,24.28,10.19,34,34,0,0,1,0,48.13,33.52,33.52,0,0,1-24.28,10H5205.09v59.83h136.57a33.54,33.54,0,0,1,24.28,10,34.29,34.29,0,0,1,0,48.35,33.54,33.54,0,0,1-24.28,10H5205.09v59.83h179.28a33.56,33.56,0,0,1,24.28,10,34.28,34.28,0,0,1,0,48.34,33.53,33.53,0,0,1-24.28,10Z" transform="translate(-10.5 -10.5)"/><path class="cls-1" d="M5492.32,757.6a34.29,34.29,0,0,1,37.94,10.19L5683.31,951.4V789.68a32.78,32.78,0,0,1,10-24.06,32.44,32.44,0,0,1,24.06-10.19,33.16,33.16,0,0,1,24.28,10.19,32.78,32.78,0,0,1,10,24.06v256a33.38,33.38,0,0,1-6.28,19.73,32.62,32.62,0,0,1-16.26,12.57,35.58,35.58,0,0,1-11.71,2,32.44,32.44,0,0,1-26.23-12.36L5538.06,884V1045.7a34.14,34.14,0,1,1-68.28,0v-256a34.1,34.1,0,0,1,22.54-32.08Z" transform="translate(-10.5 -10.5)"/><path class="cls-1" d="M5964.9,1080q-67.2,0-114.67-47.48T5802.75,917.8q0-67.41,47.48-114.68,47.48-47.68,114.67-47.69t114.68,47.69a34,34,0,0,1,0,48.13,33.76,33.76,0,0,1-48.34,0q-27.54-27.53-66.34-27.53t-66.33,27.53Q5871,878.79,5871,917.8q0,38.81,27.53,66.34t66.33,27.53q38.81,0,66.34-27.53a34.18,34.18,0,0,1,48.34,48.34Q6032.11,1080,5964.9,1080Z" transform="translate(-10.5 -10.5)"/><path class="cls-1" d="M6375.7,760.64a33.49,33.49,0,0,1,15.17,21.24,32.43,32.43,0,0,1-4.33,25.8L6285.09,970.26l-.07,31.15a33.06,33.06,0,0,1-10,24.28,33.52,33.52,0,0,1-24.28,10,34.06,34.06,0,0,1-34-34.25l.07-31.15L6115.13,807.68a34.16,34.16,0,0,1,36.63-51.38A32.86,32.86,0,0,1,6173,771.47l77.82,124.44,77.83-124.44a32.81,32.81,0,0,1,21.24-15.17A33.64,33.64,0,0,1,6375.7,760.64Z" transform="translate(-10.5 -10.5)"/><circle class="cls-1" cx="6240.38" cy="1069.46" r="31.43"/><circle class="cls-3" cx="6240.38" cy="1069.46" r="31.43"/><path class="cls-1" d="M4169.5,1471.64q-67.2,0-114.68-47.47t-47.47-114.68q0-67.42,47.47-114.68,47.47-47.68,114.68-47.69t114.68,47.69a34,34,0,0,1,0,48.13,33.78,33.78,0,0,1-48.34,0q-27.54-27.54-66.34-27.54t-66.33,27.54q-27.54,27.52-27.54,66.55,0,38.8,27.54,66.33t66.33,27.53q38.81,0,66.34-27.53a34.19,34.19,0,0,1,48.34,48.35Q4236.71,1471.65,4169.5,1471.64Z" transform="translate(-10.5 -10.5)"/><path class="cls-1" d="M4617.91,1468a32.15,32.15,0,0,1-17.13-19.72,32.62,32.62,0,0,1,1.74-26L4730.64,1166a34.07,34.07,0,0,1,61.13,0l127.9,256.23a32,32,0,0,1,1.95,26,33,33,0,0,1-17.13,19.72,32.59,32.59,0,0,1-15.17,3.69,33.87,33.87,0,0,1-30.57-19.08L4836,1407.47H4686.2l-22.55,45.09a32.2,32.2,0,0,1-19.73,17.13A32.59,32.59,0,0,1,4617.91,1468Zm102.54-128.76H4802l-40.76-81.51Z" transform="translate(-10.5 -10.5)"/><path class="cls-1" d="M5132.55,1403.35a28.63,28.63,0,0,0,21-8.67,29,29,0,0,0,8.89-21.24,30.36,30.36,0,0,0-29.91-29.92h-85.42q-40.53,0-69.37-28.83-28.83-28.62-28.83-69.37,0-40.53,28.83-69.37t69.37-28.83H5196.5a33.18,33.18,0,0,1,24.28,10.19,34,34,0,0,1,0,48.12,33.52,33.52,0,0,1-24.28,10H5047.13a30.36,30.36,0,0,0-29.91,29.92,29,29,0,0,0,8.89,21.24,28.58,28.58,0,0,0,21,8.68h85.42q40.53,0,69.37,28.83t28.83,69.37q0,40.53-28.83,69.37t-69.37,28.83H4983.18a34.15,34.15,0,1,1,0-68.29Z" transform="translate(-10.5 -10.5)"/><path class="cls-1" d="M5448.39,1403.35a28.64,28.64,0,0,0,21-8.67,29,29,0,0,0,8.89-21.24,30.36,30.36,0,0,0-29.92-29.92H5363q-40.55,0-69.37-28.83-28.83-28.62-28.83-69.37,0-40.53,28.83-69.37t69.37-28.83h149.36a33.16,33.16,0,0,1,24.28,10.19,34,34,0,0,1,0,48.12,33.5,33.5,0,0,1-24.28,10H5363a30.36,30.36,0,0,0-29.92,29.92,29,29,0,0,0,8.89,21.24,28.61,28.61,0,0,0,21,8.68h85.41q40.53,0,69.37,28.83t28.83,69.37q0,40.53-28.83,69.37t-69.37,28.83H5299a34.15,34.15,0,1,1,0-68.29Z" transform="translate(-10.5 -10.5)"/><path class="cls-1" d="M3056.16,517.84c-247.43,0-448,200.59-448,448s200.58,448,448,448,448-200.58,448-448S3303.59,517.84,3056.16,517.84Zm264.66,409.4a19.31,19.31,0,1,1-19.31,19.31A19.3,19.3,0,0,1,3320.82,927.24Zm-109.6,0a19.31,19.31,0,1,1-19.31,19.31A19.31,19.31,0,0,1,3211.22,927.24ZM2958.84,1077.4a40.66,40.66,0,0,1-19,26.12q-71.05,43.73-152.06,24.25l.17-.7a175.05,175.05,0,0,1-20.9-7.56q-76.3-33.24-106.81-110.77Q2629.67,931,2663,854.89q33.14-76.57,110.67-107.07t154,3a42.19,42.19,0,0,1,21.84,55.53,41.88,41.88,0,0,1-55.78,21.94q-44.26-19.28-89-1.67t-64,61.87q-19.28,44.25-1.57,89.27,17.61,44.78,61.86,64a129.9,129.9,0,0,0,14.24,5.24q42.56,7.61,80.38-15.55a42.33,42.33,0,0,1,63.32,45.91Zm106-171.27c-21,0-38.09-25.2-38.09-56.27s17.05-56.28,38.09-56.28,38.08,25.2,38.08,56.28S3085.91,906.13,3064.88,906.13Zm370.59,192a169.71,169.71,0,0,1-331.53,0,30,30,0,0,1,29.27-36.31h273A30,30,0,0,1,3435.47,1098.17Zm-11.52-192c-21,0-38.08-25.2-38.08-56.27s17.05-56.28,38.08-56.28,38.08,25.2,38.08,56.28S3445,906.13,3424,906.13Z" transform="translate(-10.5 -10.5)"/></g></svg>