<svg width="43" height="43" viewBox="0 0 43 43" fill="none" xmlns="http://www.w3.org/2000/svg">
<path d="M42.4427 22.1966L23.0948 0.680969C22.2801 -0.22699 20.715 -0.22699 19.9003 0.680969L0.552453 22.1966C0.273966 22.5055 0.091168 22.8888 0.0262874 23.2998C-0.0385932 23.7108 0.0172384 24.1318 0.186994 24.5116C0.530956 25.2884 1.30057 25.7875 2.14972 25.7875H6.44924V40.8484C6.44924 41.4191 6.67574 41.9663 7.0789 42.3698C7.48205 42.7733 8.02885 43 8.599 43H15.0483C15.6184 43 16.1652 42.7733 16.5684 42.3698C16.9716 41.9663 17.198 41.4191 17.198 40.8484V32.2422H25.7971V40.8484C25.7971 41.4191 26.0236 41.9663 26.4267 42.3698C26.8299 42.7733 27.3767 43 27.9468 43H34.3961C34.9663 43 35.5131 42.7733 35.9162 42.3698C36.3194 41.9663 36.5459 41.4191 36.5459 40.8484V25.7875H40.8454C41.2617 25.7893 41.6696 25.6698 42.0192 25.4436C42.3689 25.2174 42.6452 24.8942 42.8146 24.5136C42.9839 24.1329 43.0389 23.7111 42.9728 23.2997C42.9068 22.8883 42.7226 22.505 42.4427 22.1966Z" fill="#233238"/>
</svg>
