<svg width="36" height="36" viewBox="0 0 36 36" fill="none" xmlns="http://www.w3.org/2000/svg">
<path d="M18 0.570068C8.375 0.570068 0.5 8.42757 0.5 18.1051C0.5 26.8551 6.905 34.1176 15.27 35.4301V23.1801H10.825V18.1051H15.27V14.2376C15.27 9.84507 17.8775 7.43007 21.885 7.43007C23.7925 7.43007 25.7875 7.76257 25.7875 7.76257V12.0851H23.5825C21.4125 12.0851 20.73 13.4326 20.73 14.8151V18.1051H25.595L24.8075 23.1801H20.73V35.4301C24.8538 34.7788 28.6089 32.6747 31.3174 29.4977C34.0259 26.3206 35.5094 22.2799 35.5 18.1051C35.5 8.42757 27.625 0.570068 18 0.570068Z" fill="#FAFAFC"/>
</svg>
