<svg width="42" height="42" viewBox="0 0 42 42" fill="none" xmlns="http://www.w3.org/2000/svg">
<path d="M39.305 10.5C37.9575 11.1125 36.505 11.515 35 11.7075C36.54 10.78 37.73 9.31 38.29 7.5425C36.8375 8.4175 35.2275 9.03 33.53 9.38C32.1475 7.875 30.205 7 28 7C23.8875 7 20.5275 10.36 20.5275 14.5075C20.5275 15.1025 20.5975 15.68 20.72 16.2225C14.49 15.9075 8.94251 12.915 5.25001 8.3825C4.60251 9.485 4.23501 10.78 4.23501 12.145C4.23501 14.7525 5.54751 17.0625 7.57751 18.375C6.33501 18.375 5.18001 18.025 4.16501 17.5V17.5525C4.16501 21.1925 6.75501 24.2375 10.185 24.92C9.08378 25.2214 7.92767 25.2633 6.80751 25.0425C7.28282 26.5343 8.2137 27.8397 9.46929 28.7751C10.7249 29.7105 12.242 30.229 13.8075 30.2575C11.1539 32.3583 7.8645 33.4938 4.48001 33.4775C3.88501 33.4775 3.29001 33.4425 2.69501 33.3725C6.02001 35.5075 9.97501 36.75 14.21 36.75C28 36.75 35.5775 25.305 35.5775 15.3825C35.5775 15.05 35.5775 14.735 35.56 14.4025C37.03 13.3525 38.29 12.0225 39.305 10.5Z" fill="#FAFAFC"/>
</svg>
