<svg xmlns="http://www.w3.org/2000/svg" viewBox="0 0 1983 1983"><title>LOGO-BLACK-ICON</title><g id="CÓPIAS"><path d="M1000,8.5C452.41,8.5,8.5,452.41,8.5,1000s443.91,991.5,991.5,991.5,991.5-443.91,991.5-991.5S1547.59,8.5,1000,8.5Zm585.72,906A42.74,42.74,0,1,1,1543,957.26,42.73,42.73,0,0,1,1585.72,914.53Zm-242.56,0a42.74,42.74,0,1,1-42.74,42.73A42.73,42.73,0,0,1,1343.16,914.53ZM784.62,1246.86q-9,37.58-42,57.79-157.24,96.78-336.53,53.69l.37-1.53a383.82,383.82,0,0,1-46.23-16.76q-168.91-73.54-236.39-245.15Q56.1,922.76,129.87,754.41,203.21,585,374.8,517.47t340.72,6.62q35.46,15.45,49.62,51.42T763.84,647q-15.23,36-51.21,50.18-36.52,14.37-72.23-1.63-97.93-42.64-197-3.69T301.64,828.75Q259,926.7,298.17,1026.33q39,99.09,136.92,141.74a284.54,284.54,0,0,0,31.5,11.59q94.19,16.85,177.9-34.4,33.12-20.79,71.3-11.61,37.59,9,57.66,42.61Q793.66,1209.26,784.62,1246.86Zm234.66-379c-46.54,0-84.28-55.75-84.28-124.53s37.74-124.54,84.28-124.54,84.28,55.76,84.28,124.54S1065.83,867.81,1019.28,867.81Zm820.17,425c-36.8,168.75-187.07,295.11-366.85,295.11s-330.06-126.36-366.85-295.11a66.27,66.27,0,0,1,64.77-80.36h604.16A66.28,66.28,0,0,1,1839.45,1292.82Zm-25.49-425c-46.55,0-84.28-55.75-84.28-124.53s37.73-124.54,84.28-124.54,84.28,55.76,84.28,124.54S1860.51,867.81,1814,867.81Z" transform="translate(-8.5 -8.5)"/></g></svg>