<svg width="42" height="43" viewBox="0 0 42 43" fill="none" xmlns="http://www.w3.org/2000/svg">
<path d="M21.0048 29.025C19.0007 29.025 17.0788 28.2322 15.6617 26.821C14.2447 25.4098 13.4486 23.4958 13.4486 21.5C13.4486 19.5042 14.2447 17.5902 15.6617 16.179C17.0788 14.7678 19.0007 13.975 21.0048 13.975C23.0088 13.975 24.9307 14.7678 26.3478 16.179C27.7649 17.5902 28.561 19.5042 28.561 21.5C28.561 23.4958 27.7649 25.4098 26.3478 26.821C24.9307 28.2322 23.0088 29.025 21.0048 29.025ZM37.0455 23.5855C37.1318 22.8975 37.1966 22.2095 37.1966 21.5C37.1966 20.7905 37.1318 20.081 37.0455 19.35L41.6008 15.8455C42.011 15.523 42.1189 14.9425 41.8599 14.4695L37.542 7.0305C37.283 6.5575 36.7001 6.364 36.2251 6.5575L30.8494 8.7075C29.7268 7.869 28.561 7.138 27.2008 6.6005L26.402 0.903004C26.3582 0.649771 26.2257 0.420172 26.0282 0.25489C25.8306 0.0896074 25.5806 -0.000687515 25.3226 3.94196e-06H16.6869C16.1472 3.94196e-06 15.6938 0.387004 15.6075 0.903004L14.8087 6.6005C13.4486 7.138 12.2828 7.869 11.1601 8.7075L5.78444 6.5575C5.30948 6.364 4.72657 6.5575 4.4675 7.0305L0.149681 14.4695C-0.130978 14.9425 -0.00144281 15.523 0.40875 15.8455L4.96405 19.35C4.8777 20.081 4.81293 20.7905 4.81293 21.5C4.81293 22.2095 4.8777 22.8975 4.96405 23.5855L0.40875 27.1545C-0.00144281 27.477 -0.130978 28.0575 0.149681 28.5305L4.4675 35.9695C4.72657 36.4425 5.30948 36.6145 5.78444 36.4425L11.1601 34.271C12.2828 35.131 13.4486 35.862 14.8087 36.3995L15.6075 42.097C15.6938 42.613 16.1472 43 16.6869 43H25.3226C25.8623 43 26.3157 42.613 26.402 42.097L27.2008 36.3995C28.561 35.8405 29.7268 35.131 30.8494 34.271L36.2251 36.4425C36.7001 36.6145 37.283 36.4425 37.542 35.9695L41.8599 28.5305C42.1189 28.0575 42.011 27.477 41.6008 27.1545L37.0455 23.5855Z" fill="#233238"/>
</svg>
