<svg width="40" height="40" viewBox="0 0 40 40" fill="none" xmlns="http://www.w3.org/2000/svg">
<path fill-rule="evenodd" clip-rule="evenodd" d="M4.10721 7.85913L1.06742 4.81952C0.980019 4.7319 0.868563 4.6722 0.747186 4.64799C0.625809 4.62379 0.499978 4.63616 0.385644 4.68356C0.271311 4.73095 0.173624 4.81122 0.104968 4.91419C0.0363124 5.01716 -0.00022044 5.1382 1.00074e-06 5.26196V14.3758C1.00074e-06 14.7208 0.279981 15.0007 0.624956 15.0007H9.7393C9.86307 15.001 9.98412 14.9644 10.0871 14.8958C10.1901 14.8271 10.2703 14.7294 10.3177 14.6151C10.3651 14.5008 10.3775 14.375 10.3533 14.2536C10.3291 14.1322 10.2694 14.0208 10.1818 13.9334L6.78701 10.5388C8.99994 7.44831 12.2264 5.23142 15.905 4.27385C19.5836 3.31629 23.4815 3.67865 26.9206 5.2979C30.3596 6.91715 33.1221 9.69078 34.7273 13.1362C36.3326 16.5817 36.679 20.4808 35.7064 24.1553C34.7337 27.8298 32.5035 31.0469 29.4038 33.2471C26.3042 35.4472 22.5312 36.4911 18.7414 36.197C14.9515 35.9029 11.3848 34.2896 8.66163 31.6376C5.93849 28.9856 4.23135 25.4629 3.83723 21.6824C3.78618 21.1875 3.54061 20.7331 3.15454 20.4193C2.76848 20.1054 2.27355 19.9578 1.77862 20.0089C1.2837 20.0599 0.829325 20.3055 0.515458 20.6915C0.201591 21.0775 0.053943 21.5724 0.104993 22.0673C0.585929 26.6949 2.66519 31.0099 5.98483 34.2697C9.30447 37.5296 13.6568 39.5301 18.2925 39.9271C22.9282 40.324 27.5573 39.0924 31.3829 36.4444C35.2084 33.7964 37.9911 29.8976 39.2518 25.4192C40.5125 20.9408 40.1723 16.1631 38.2899 11.9084C36.4076 7.65373 33.1007 4.18839 28.9386 2.10894C24.7765 0.0294872 20.0196 -0.533966 15.4869 0.515577C10.9541 1.56512 6.92909 4.16199 4.10471 7.85913H4.10721ZM19.3736 10.0014C19.8709 10.0014 20.3477 10.1989 20.6993 10.5505C21.0509 10.9021 21.2485 11.3789 21.2485 11.8761V19.3552L26.3181 21.3849C26.7649 21.5797 27.1182 21.9407 27.3033 22.3915C27.4884 22.8424 27.4906 23.3475 27.3096 23.8C27.1285 24.2524 26.7784 24.6166 26.3334 24.8153C25.8884 25.014 25.3835 25.0317 24.9257 24.8645L18.6762 22.3648C18.3286 22.2255 18.0307 21.9854 17.8209 21.6753C17.611 21.3652 17.4988 20.9994 17.4987 20.625V11.8761C17.4987 11.3789 17.6963 10.9021 18.0479 10.5505C18.3995 10.1989 18.8764 10.0014 19.3736 10.0014Z" fill="#233238"/>
</svg>
