<svg width="634" height="634" viewBox="0 0 634 634" fill="none" xmlns="http://www.w3.org/2000/svg">
<path d="M616.942 332.048C616.949 350.205 609.739 367.619 596.901 380.458C584.062 393.296 566.648 400.506 548.492 400.499H492.672C485.981 400.499 480.556 405.924 480.556 412.615C480.556 419.306 485.981 424.731 492.672 424.731H509.342C530.017 424.73 547.575 439.87 550.616 460.32C550.911 462.338 551.059 464.375 551.058 466.415C551.054 489.453 532.38 508.13 509.342 508.137H505.446C493.928 508.135 482.88 512.71 474.735 520.855C466.59 529 462.015 540.048 462.016 551.567H156.948V530.218C156.948 518.023 147.062 508.137 134.866 508.137C123.886 508.15 113.345 503.819 105.546 496.089L105.366 495.915C92.2084 482.778 89.3256 462.521 98.2955 446.235C99.1984 444.597 100.216 443.025 101.34 441.531C102.581 439.85 103.95 438.267 105.434 436.797C113.243 429.036 123.807 424.684 134.817 424.693H210.431C217.123 424.693 222.547 419.269 222.547 412.578C222.547 405.886 217.123 400.462 210.431 400.462H85.5149C52.8962 400.446 24.8177 377.421 18.4123 345.438C18.257 344.705 18.1265 343.959 18.0023 343.213C17.4171 339.689 17.1117 336.124 17.0889 332.552C16.9274 310.923 27.1295 291.544 42.9607 278.87C55.2601 268.976 70.5686 263.577 86.3537 263.566H161.533C164.515 263.567 167.373 262.376 169.472 260.26C171.572 258.144 172.74 255.277 172.717 252.296C172.674 246.082 167.436 241.174 161.235 241.174H134.841C118.508 241.171 103.678 231.637 96.8957 216.778C90.1128 201.92 92.6243 184.47 103.322 172.127C103.626 171.773 103.943 171.418 104.266 171.077C112.15 162.559 123.235 157.723 134.841 157.737H265.586C271.608 157.751 277.388 155.365 281.647 151.108C282.502 150.256 283.285 149.335 283.989 148.355C286.8 144.487 288.31 139.827 288.301 135.046C288.3 129.021 290.692 123.241 294.952 118.98C299.212 114.719 304.991 112.325 311.017 112.325H469.373C475.4 112.32 481.181 114.712 485.443 118.975C489.704 123.237 492.095 129.019 492.088 135.046V139.545C492.091 147.977 497.878 155.307 506.08 157.265C507.464 157.598 508.882 157.765 510.305 157.762C525.331 157.578 539.295 165.49 546.861 178.473C554.428 191.456 554.428 207.505 546.861 220.488C539.295 233.471 525.331 241.382 510.305 241.199H455.815C449.639 241.199 444.632 246.206 444.632 252.383C444.632 258.559 449.639 263.566 455.815 263.566H548.492C551.268 263.564 554.042 263.732 556.799 264.07C557.561 264.161 558.319 264.266 559.073 264.387C583.216 268.17 603.518 284.527 612.351 307.314L612.388 307.413C614.533 312.987 615.935 318.82 616.557 324.76V324.791C616.8 327.037 616.926 329.293 616.936 331.551C616.942 331.756 616.942 331.912 616.942 332.048Z" fill="#F3F4FE"/>
<rect x="55.2441" y="550.181" width="503.232" height="10.9414" rx="5.4707" fill="#D2D6FA"/>
<path d="M412.354 394.218L380.654 473.66L320.312 419.978L209.164 321.101L206.84 240.478L205.355 188.791L242.864 226.014L412.354 394.218Z" fill="#BDC7EF"/>
<path d="M362.555 415.821L320.305 419.978L101.359 441.537C102.6 439.856 103.968 438.273 105.453 436.803C113.261 429.042 123.826 424.69 134.835 424.7H210.45C217.141 424.7 222.566 419.275 222.566 412.584C222.566 405.893 217.141 400.468 210.45 400.468H85.5149C52.0341 400.462 23.4669 376.247 17.9774 343.22L114.605 263.598L141.788 241.199L164.92 222.131L205.374 188.784L240.23 239.111L362.555 415.821Z" fill="#CBD2F7"/>
<path d="M551.057 466.415C551.054 489.454 532.38 508.13 509.342 508.137H505.446C493.927 508.135 482.88 512.71 474.735 520.855C466.59 529.001 462.014 540.048 462.016 551.567H156.948V530.218C156.948 518.023 147.062 508.137 134.866 508.137C123.885 508.15 113.345 503.819 105.546 496.089L105.366 495.915C93.4201 483.989 89.8419 466.038 96.302 450.443C102.762 434.848 117.986 424.685 134.866 424.7H210.481C215.924 424.702 220.697 421.068 222.143 415.821H481.028C482.481 421.067 487.254 424.699 492.697 424.7H509.367C520.431 424.698 531.042 429.093 538.866 436.916C546.689 444.74 551.084 455.351 551.082 466.415H551.057Z" fill="#CBD2F7"/>
<path d="M616.942 332.048C616.949 350.205 609.739 367.619 596.901 380.458C584.062 393.296 566.648 400.506 548.491 400.499H492.672C485.981 400.499 480.556 405.924 480.556 412.615C480.556 419.306 485.981 424.731 492.672 424.731H509.342C530.017 424.731 547.575 439.87 550.616 460.32H444.489L362.555 415.821L559.072 264.418C583.216 268.201 603.517 284.558 612.351 307.345L612.388 307.444C614.533 313.019 615.934 318.851 616.557 324.791V324.822C616.774 327.929 616.911 330.29 616.936 331.582C616.942 331.756 616.942 331.912 616.942 332.048Z" fill="#CBD2F7"/>
<path d="M83.8683 310.34L18.3874 345.475C18.2321 344.742 18.1016 343.996 17.9774 343.251C17.3922 339.727 17.0868 336.162 17.064 332.589C16.9025 310.961 27.1046 291.582 42.9358 278.907L83.8683 310.34Z" fill="#CBD2F7"/>
<path d="M242.864 226.014L240.211 239.13L205.355 188.791L242.864 226.014Z" fill="#F0F1F7"/>
<path d="M240.211 239.13L220.236 228.145L210.232 243.15L206.84 240.478L193.73 230.146L175.73 238.148L164.901 222.137L205.355 188.791L240.211 239.13Z" fill="white"/>
<circle cx="317.137" cy="80.1838" r="7.30051" fill="#5787A0"/>
<path d="M324.419 80.7121C324.279 82.6445 323.376 84.4421 321.91 85.7089C320.444 86.9757 318.535 87.6077 316.602 87.4658C315.792 87.4069 314.996 87.2159 314.248 86.9004C316.935 85.7493 318.677 83.1073 318.677 80.1839C318.677 77.2605 316.935 74.6185 314.248 73.4675C316.59 72.4692 319.283 72.7626 321.356 74.2416C323.429 75.7207 324.582 78.1722 324.4 80.7121H324.419Z" fill="#44788E"/>
<path d="M409.396 275.762C409.946 278.595 408.095 281.337 405.262 281.887C402.429 282.437 399.687 280.587 399.137 277.754L395.682 259.962C395.131 257.129 396.982 254.387 399.815 253.837C402.648 253.287 405.39 255.137 405.94 257.97L409.396 275.762Z" fill="#FFB2BF"/>
<path d="M490.597 546.354C490.535 546.913 490.105 547.36 489.548 547.445C488.992 547.529 488.449 547.23 488.223 546.714L411.13 301.635L408.645 293.7L407.663 290.594L417.797 287.574L418.685 290.724L420.941 298.727L490.56 546.012C490.588 546.124 490.6 546.239 490.597 546.354Z" fill="#5787A0"/>
<path d="M490.597 546.354C490.536 546.911 490.111 547.359 489.558 547.447C489.005 547.536 488.461 547.243 488.23 546.733L418.611 299.448L416.355 291.445L415.473 288.339L417.791 287.649L418.679 290.799L420.934 298.802L490.553 546.087C490.578 546.174 490.592 546.264 490.597 546.354Z" fill="#619BB5"/>
<path d="M420.928 298.715L411.13 301.635L408.632 293.7L418.673 290.712L420.928 298.715Z" fill="#427084"/>
<path d="M402.685 255.376C406.349 254.285 410.204 256.37 411.295 260.034L419.363 287.115L406.084 291.071L398.015 263.984C397.492 262.223 397.69 260.326 398.566 258.712C399.442 257.098 400.924 255.898 402.685 255.376Z" fill="#5787A0"/>
<path d="M400.486 297.068C399.83 294.868 401.082 292.553 403.282 291.898L422.146 286.278C424.347 285.622 426.661 286.874 427.317 289.074C427.972 291.275 426.72 293.589 424.52 294.245L405.656 299.865C403.456 300.52 401.141 299.268 400.486 297.068Z" fill="#5787A0"/>
<path d="M424.526 294.229L417.983 296.18C419.677 295.294 420.548 293.366 420.091 291.51C419.634 289.654 417.969 288.349 416.057 288.351C415.654 288.352 415.252 288.408 414.864 288.519L412.062 289.358V289.277L403.985 262.28C403.32 260.028 401.551 258.27 399.294 257.621C400.605 256.01 402.573 255.076 404.65 255.079C407.706 255.079 410.401 257.085 411.279 260.013L419.356 287.096L422.165 286.257C422.548 286.142 422.945 286.083 423.345 286.083C425.416 286.074 427.178 287.591 427.476 289.641C427.775 291.69 426.519 293.646 424.532 294.229H424.526Z" fill="#619BB5"/>
<path d="M344.239 520.308H297.963L283.946 257.931H330.216L344.239 520.308Z" fill="#5787A0"/>
<path d="M344.232 520.308H336.957L322.934 257.931H330.215L344.232 520.308Z" fill="#699CB2"/>
<path d="M349.153 552.605L346.531 508.926L345.127 485.539L343.885 465.117C343.746 462.782 341.812 460.959 339.473 460.96H293.172C291.95 460.961 290.783 461.467 289.947 462.36C289.111 463.252 288.682 464.45 288.761 465.67L290.035 485.552L291.526 508.926L293.11 533.611C281.008 534.689 271.731 544.828 271.731 556.979C271.729 557.342 271.872 557.692 272.129 557.949C272.385 558.207 272.734 558.352 273.098 558.352H343.717C345.216 558.362 346.653 557.749 347.684 556.659C348.714 555.57 349.246 554.101 349.153 552.605Z" fill="#FFD9CD"/>
<path d="M349.153 552.605L346.531 508.926L345.127 485.539L343.885 465.117C343.746 462.782 341.812 460.959 339.473 460.96H293.172C291.95 460.961 290.783 461.467 289.947 462.36C289.111 463.252 288.682 464.45 288.761 465.67L290.035 485.552L291.526 508.926L293.11 533.611C281.008 534.689 271.731 544.828 271.731 556.979C271.729 557.342 271.872 557.692 272.129 557.949C272.385 558.207 272.734 558.352 273.098 558.352H343.717C345.216 558.362 346.653 557.749 347.684 556.659C348.714 555.57 349.246 554.101 349.153 552.605Z" fill="#FFD9CD"/>
<path d="M343.717 558.346H334.82C336.314 558.348 337.743 557.733 338.767 556.646C339.792 555.559 340.322 554.096 340.231 552.605L337.609 508.926L336.205 485.539L334.962 465.117C334.824 462.782 332.89 460.959 330.551 460.96H339.492C341.831 460.959 343.765 462.782 343.903 465.117L345.146 485.539L346.55 508.926L349.172 552.605C349.263 554.104 348.728 555.573 347.693 556.662C346.659 557.751 345.219 558.36 343.717 558.346Z" fill="#F9E5E1"/>
<path d="M346.531 508.926H291.532L290.035 485.539H345.127L346.531 508.926Z" fill="#CC488E"/>
<path d="M313.894 97.3076H315.204C320.642 97.3076 325.858 99.4678 329.703 103.313C333.548 107.158 335.708 112.373 335.708 117.811V166.237C335.708 171.024 331.828 174.904 327.041 174.904H293.812C289.026 174.904 285.145 171.024 285.145 166.237V126.025C285.145 118.403 288.175 111.094 293.567 105.708C298.959 100.321 306.272 97.2994 313.894 97.3076Z" fill="#2B2137"/>
<path d="M304.058 191.158L276.099 210.114L263.865 218.409C259.56 221.459 253.943 221.944 249.179 219.677C244.416 217.41 241.25 212.744 240.903 207.48C240.555 202.216 243.081 197.175 247.505 194.302L261.454 184.845L263.088 183.733L287.686 167.044C294.345 162.53 303.402 164.269 307.916 170.928C312.43 177.586 310.692 186.644 304.033 191.158H304.058Z" fill="#F9CABD"/>
<path d="M269.674 209.872C268.395 214.722 264.712 218.573 259.924 220.066C255.136 221.559 249.916 220.485 246.107 217.222L245.685 216.843C245.542 216.713 245.418 216.589 245.287 216.458L245.132 216.303L244.877 216.029C244.672 215.806 244.467 215.582 244.287 215.346C244.107 215.11 244.02 215.01 243.889 214.836C243.492 214.305 243.133 213.747 242.814 213.165C242.721 213.004 242.64 212.842 242.56 212.674C242.479 212.507 242.392 212.339 242.317 212.165C242.15 211.792 241.988 211.407 241.851 211.015L227.306 169.828L225.666 165.237C225.478 164.703 225.318 164.159 225.188 163.609C223.331 156.023 227.789 148.323 235.292 146.155C242.795 143.988 250.672 148.124 253.147 155.531L269.301 201.31C270.286 204.061 270.416 207.046 269.674 209.872Z" fill="#F9CABD"/>
<path d="M258.416 170.437L233.383 180.931L231.519 181.72L227.344 169.915L227.312 169.822L226.641 167.921L225.666 165.236C225.481 164.7 225.324 164.155 225.194 163.602C223.541 156.339 227.633 148.999 234.68 146.586C241.727 144.172 249.459 147.463 252.606 154.214C252.799 154.637 252.979 155.084 253.147 155.531L258.416 170.437Z" fill="#FFB2BF"/>
<path d="M269.668 209.872C268.391 214.721 264.709 218.573 259.922 220.066C255.134 221.56 249.915 220.485 246.107 217.222C245.971 217.098 245.822 216.974 245.685 216.843C245.548 216.713 245.412 216.588 245.287 216.458L245.132 216.303C245.045 216.216 244.964 216.122 244.871 216.035C244.672 215.812 244.467 215.582 244.25 215.346L243.858 214.836C243.462 214.304 243.103 213.746 242.783 213.165C242.69 212.997 242.609 212.842 242.535 212.68C242.443 212.514 242.362 212.342 242.293 212.165C242.119 211.792 241.963 211.407 241.82 211.015L231.482 181.745L258.385 170.437L269.295 201.31C270.283 204.061 270.413 207.046 269.668 209.872Z" fill="#F9CABD"/>
<ellipse cx="234.248" cy="156.118" rx="15.4087" ry="19.5467" transform="rotate(-69.46 234.248 156.118)" fill="#FFB2BF"/>
<path d="M260.988 219.689L260.448 219.894C255.534 221.63 250.068 220.614 246.107 217.228L245.685 216.843C245.542 216.719 245.412 216.589 245.287 216.458L245.132 216.303C245.045 216.216 244.964 216.123 244.871 216.036C244.672 215.812 244.467 215.582 244.25 215.352L243.858 214.843C243.463 214.308 243.104 213.747 242.783 213.165C242.692 213.008 242.609 212.846 242.535 212.68C242.439 212.516 242.358 212.343 242.293 212.165C242.119 211.792 241.963 211.407 241.82 211.015L231.482 181.745L233.346 180.956L243.734 210.4C243.877 210.785 244.032 211.171 244.2 211.55C244.274 211.722 244.357 211.89 244.449 212.053C244.523 212.223 244.606 212.389 244.697 212.55C245.017 213.129 245.374 213.687 245.766 214.221L246.17 214.731C246.35 214.961 246.555 215.191 246.76 215.408C246.841 215.507 246.928 215.588 247.015 215.681C247.063 215.736 247.115 215.788 247.17 215.837C247.295 215.973 247.428 216.101 247.568 216.222L247.99 216.607C251.572 219.67 256.412 220.818 260.988 219.689Z" fill="#FFD9CD"/>
<path d="M233.383 180.931L231.519 181.72L227.344 169.915C226.648 169.604 225.977 169.256 225.324 168.89L224.933 168.66C224.784 168.579 224.635 168.492 224.498 168.405C224.361 168.318 224.057 168.126 223.839 167.976C223.622 167.827 223.404 167.684 223.218 167.535C223.032 167.386 222.802 167.231 222.597 167.076C222.392 166.92 222.361 166.895 222.249 166.796C222.137 166.697 221.919 166.541 221.764 166.405C221.609 166.268 221.509 166.187 221.385 166.075C221.261 165.963 221.043 165.771 220.876 165.609C220.708 165.448 220.515 165.274 220.347 165.094C219.993 164.739 219.664 164.379 219.36 164.019C219.198 163.838 219.049 163.646 218.9 163.466C218.731 163.267 218.574 163.06 218.428 162.844C218.155 162.492 217.902 162.125 217.67 161.745C216.936 160.589 216.344 159.35 215.905 158.054C215.843 157.855 215.775 157.65 215.719 157.433C215.663 157.215 215.607 157.016 215.557 156.811C215.507 156.606 215.483 156.488 215.451 156.333C214.945 153.972 215.119 151.516 215.955 149.25C216.048 149.001 216.154 148.753 216.259 148.51C216.259 148.473 216.29 148.436 216.309 148.405C216.508 147.995 216.719 147.591 216.93 147.206C216.999 147.1 217.054 146.994 217.129 146.895C217.26 146.69 217.39 146.491 217.539 146.274C217.694 146.062 217.862 145.851 218.036 145.652C218.21 145.454 218.397 145.23 218.589 145.031L219.024 144.596L219.217 144.428C219.409 144.236 219.614 144.068 219.838 143.894C220.062 143.72 220.285 143.54 220.515 143.378C220.745 143.217 220.969 143.049 221.217 142.894L221.292 142.844C221.478 142.72 221.683 142.596 221.913 142.484C222.979 141.881 224.105 141.393 225.275 141.03C225.548 140.943 225.828 140.868 226.107 140.794C222.274 142.26 219.273 144.969 217.887 148.653C215.34 155.451 219.186 163.404 226.666 167.914C227.509 168.43 228.385 168.891 229.288 169.294L229.854 170.872L233.383 180.931Z" fill="#F9A0B4"/>
<path d="M399.661 523.893H353.397L310.451 273.744H357.1L399.661 523.893Z" fill="#8AB6C9"/>
<path d="M336.957 314.223C307.68 314.223 283.946 290.489 283.946 261.212V238.465H336.957V314.223Z" fill="#8AB6C9"/>
<rect x="341.43" y="246.965" width="61.9518" height="8.49966" rx="4.24983" transform="rotate(-180 341.43 246.965)" fill="#5787A0"/>
<path d="M336.957 238.471H283.946V200.099H336.957V238.471Z" fill="#FFF2EE"/>
<path d="M336.957 200.093H283.946V217.657L336.957 213.078V200.093Z" fill="#FFD9CD"/>
<path d="M421.574 253.762C421.876 259.717 418.507 265.251 413.079 267.719C407.651 270.187 401.266 269.087 396.976 264.946L339.815 209.729L321.175 191.711C315.404 186.136 315.244 176.939 320.818 171.167C326.393 165.395 335.59 165.235 341.362 170.81L417.163 244.026C419.821 246.59 421.399 250.073 421.574 253.762Z" fill="#FFF2EE"/>
<path d="M417.517 264.617C414.841 267.39 411.172 268.987 407.318 269.054C403.465 269.122 399.742 267.655 396.97 264.977L396.523 264.542L389.073 257.353L393.509 251.693L407.092 234.365L417.157 244.082C422.924 249.66 423.083 258.856 417.511 264.629L417.517 264.617Z" fill="#FFB2BF"/>
<ellipse cx="413.332" cy="260.201" rx="16.4277" ry="19.497" transform="rotate(-51.26 413.332 260.201)" fill="#FFB2BF"/>
<path d="M393.497 251.674L389.073 257.353L321.163 191.76C320.952 191.562 320.745 191.355 320.542 191.139L320.467 191.065C320.305 190.884 320.144 190.692 319.989 190.512L319.895 190.381C319.753 190.207 319.616 190.027 319.485 189.847C319.449 189.806 319.416 189.762 319.386 189.716L318.988 189.139C318.975 189.105 318.956 189.073 318.932 189.045C318.496 188.351 318.118 187.621 317.802 186.864C317.802 186.833 317.802 186.796 317.77 186.765C317.677 186.554 317.597 186.336 317.522 186.144L317.472 186.001C317.398 185.79 317.336 185.578 317.273 185.38C317.264 185.339 317.251 185.3 317.236 185.261C317.168 185.013 317.112 184.777 317.056 184.528C317.055 184.518 317.055 184.508 317.056 184.497C315.993 179.736 317.394 174.759 320.784 171.251C320.834 171.214 320.878 171.17 320.914 171.12C324.021 168.076 328.992 171.499 327.413 175.556C325.306 181.004 326.67 187.184 330.874 191.239L393.497 251.674Z" fill="#FFD9CD"/>
<path d="M428.539 272.408C426.864 274.479 424.647 276.042 422.134 276.925C422.1 276.941 422.065 276.951 422.028 276.956C421.36 277.193 420.677 277.386 419.984 277.534L419.729 277.577L418.853 277.72C418.786 277.737 418.717 277.747 418.648 277.751C418.294 277.801 417.934 277.832 417.573 277.857C417.511 277.85 417.449 277.85 417.387 277.857C417.076 277.857 416.765 277.857 416.461 277.857H416.188C415.448 277.857 414.709 277.795 413.963 277.708L413.696 277.664C413.385 277.627 413.075 277.577 412.758 277.509L412.553 277.478C412.18 277.403 411.801 277.316 411.422 277.217L411.242 277.167C410.925 277.086 410.621 276.987 410.285 276.888L410.03 276.807C409.268 276.549 408.519 276.252 407.787 275.918L407.57 275.813C407.241 275.657 406.949 275.496 406.601 275.322C406.553 275.301 406.507 275.276 406.464 275.247C406.091 275.049 405.712 274.837 405.352 274.626L405.259 274.558C404.917 274.353 404.594 274.135 404.265 273.905C404.21 273.87 404.158 273.83 404.109 273.787C403.749 273.533 403.395 273.272 403.047 272.992C400.918 271.299 399.115 269.231 397.728 266.891C397.728 266.891 397.728 266.853 397.685 266.828C397.673 266.806 397.663 266.783 397.654 266.76C397.23 266.039 396.852 265.292 396.523 264.523L389.073 257.353L393.509 251.693L395.429 253.557L406.271 264.033C406.489 265.906 407.321 267.654 408.639 269.003C413.149 273.856 422.929 275.446 428.359 267.76C430.037 265.53 431.096 262.896 431.429 260.124C432.193 264.523 431.323 268.953 428.539 272.408Z" fill="#F9A0B4"/>
<path d="M322.592 153.257L321.778 157.942L320.038 167.989C319.682 171.004 317.69 173.575 314.86 174.675C312.03 175.774 308.825 175.222 306.526 173.239C304.228 171.256 303.211 168.166 303.884 165.205L304.064 164.149L306.425 150.48C306.787 147.468 308.78 144.901 311.608 143.805C314.436 142.709 317.639 143.262 319.936 145.243C322.232 147.224 323.249 150.311 322.58 153.27L322.592 153.257Z" fill="#FFB2BF"/>
<path d="M346.892 193.904V194.395C346.894 200.213 343.53 205.508 338.262 207.977L320.591 189.008C318.031 186.269 316.635 182.642 316.696 178.893H331.912C335.889 178.896 339.702 180.48 342.512 183.295C345.321 186.111 346.897 189.927 346.892 193.904Z" fill="#FFD9CD"/>
<path d="M338.324 193.587H275.57C275.57 177.73 288.425 164.876 304.282 164.876H309.644C325.5 164.876 338.355 177.73 338.355 193.587L338.324 193.587Z" fill="#FFF2EE"/>
<rect x="344.264" y="209.394" width="76.82" height="30.482" rx="15.241" transform="rotate(-180 344.264 209.394)" fill="#FFF2EE"/>
<path d="M340.436 204.404C337.587 207.58 333.519 209.388 329.252 209.375H282.442C278.465 209.378 274.649 207.801 271.835 204.99C269.021 202.18 267.439 198.366 267.437 194.389V193.885C267.434 188.925 269.892 184.286 273.999 181.502C271.695 184.206 270.433 187.643 270.438 191.195V191.698C270.438 199.978 277.151 206.691 285.431 206.691H332.266C335.086 206.694 337.85 205.899 340.237 204.398L340.436 204.404Z" fill="#FFD9CD"/>
<ellipse cx="326.935" cy="280.05" rx="30.8112" ry="30.8113" fill="#8AB6C9"/>
<path d="M399.636 523.9H353.391L352.999 521.626H393.572L354.739 293.347L351.403 273.75L351.359 273.495L351.042 271.6V271.501C349.108 262.265 343.051 254.424 334.602 250.221C345.987 253.139 354.725 262.272 357.137 273.775L357.523 276.03C357.517 276.074 357.517 276.117 357.523 276.161L399.636 523.9Z" fill="#A8D4E5"/>
<path d="M351.017 271.47V271.569C351.02 271.536 351.02 271.503 351.017 271.47Z" fill="#A8D4E5"/>
<path d="M351.359 273.508L351.403 273.762C351.384 273.663 351.365 273.57 351.359 273.508Z" fill="#A8D4E5"/>
<path d="M357.485 275.993L357.1 273.738C357.255 274.483 357.386 275.235 357.485 275.993Z" fill="#A8D4E5"/>
<path d="M351.03 271.569C351.033 271.536 351.033 271.503 351.03 271.47V271.569Z" fill="#A8D4E5"/>
<path d="M351.403 273.744C351.403 273.663 351.403 273.57 351.372 273.489L351.403 273.744Z" fill="#A8D4E5"/>
<path d="M322.592 153.257L321.778 157.942C316.777 162.03 310.498 164.229 304.039 164.155L306.4 150.486C306.762 147.475 308.755 144.908 311.583 143.811C314.412 142.715 317.614 143.268 319.911 145.249C322.208 147.231 323.224 150.318 322.555 153.276L322.592 153.257Z" fill="#F9A0B4"/>
<path d="M335.64 117.184L334.714 135.109C333.925 150.335 320.943 162.039 305.717 161.254C300.076 160.963 294.781 158.443 290.997 154.248C287.214 150.054 285.252 144.528 285.543 138.886L286.319 123.844V123.571C286.319 123.154 286.375 122.751 286.419 122.328C287.979 107.347 300.899 96.1477 315.95 96.7297H316.335L317.236 96.7794C318.464 96.8392 319.684 97.0182 320.877 97.3137C329.931 99.5329 336.129 107.875 335.64 117.184Z" fill="#FFB2BF"/>
<path d="M339.548 129.946L334.242 118.867C333.728 117.803 333.039 116.833 332.204 115.997L332.825 115.866C333.049 115.798 333.602 112.834 333.602 112.611C333.611 112.561 333.611 112.511 333.602 112.462C331.622 105.905 327.05 100.443 320.945 97.3386C319.752 97.0431 318.533 96.8641 317.305 96.8043L316.404 96.7546H316.018C300.967 96.1726 288.048 107.372 286.487 122.353C291.494 124.078 296.919 124.171 301.983 122.62L310.352 120.793C316.157 119.524 322.073 122.412 324.642 127.771C327.142 132.992 333.401 135.197 338.622 132.698C339.636 132.192 340.05 130.961 339.548 129.946Z" fill="#F9A0B4"/>
<path d="M323.835 107.665H326.444C333.791 107.665 339.747 113.621 339.747 120.967V131.53C339.747 132.971 338.578 134.139 337.137 134.139C333.605 134.139 330.217 132.734 327.722 130.234C325.227 127.734 323.828 124.344 323.835 120.812V107.665Z" fill="#2B2137"/>
<ellipse cx="333.962" cy="129.865" rx="8.64876" ry="8.64878" fill="#FFB2BF"/>
<path d="M336.882 129.834C336.967 128.351 336.151 126.963 334.813 126.317C334.494 126.175 334.125 126.2 333.828 126.384C333.53 126.568 333.343 126.887 333.328 127.236L333.067 132.033C333.051 132.399 333.222 132.748 333.521 132.959C333.821 133.171 334.207 133.215 334.546 133.077C335.888 132.54 336.798 131.276 336.882 129.834Z" fill="#F9A0B4"/>
<path d="M293.732 238.471H296.851V246.971H293.732V238.471Z" fill="#8AB6C9"/>
<path d="M306.935 238.471H310.054V246.971H306.935V238.471Z" fill="#8AB6C9"/>
<path d="M320.138 238.471H323.257V246.971H320.138V238.471Z" fill="#8AB6C9"/>
<ellipse cx="294.117" cy="126.429" rx="2.05656" ry="2.05656" fill="#FFD9CD"/>
<ellipse cx="312.874" cy="126.429" rx="2.05658" ry="2.05656" fill="#FFD9CD"/>
<ellipse cx="303.393" cy="137.776" rx="2.32374" ry="2.78352" transform="rotate(-89.58 303.393 137.776)" fill="#DB5A9A"/>
<ellipse cx="307.636" cy="137.808" rx="2.32374" ry="2.7835" transform="rotate(-89.58 307.636 137.808)" fill="#DB5A9A"/>
<path d="M300.61 137.755L310.414 137.824C310.414 139.911 308.196 141.589 305.487 141.552C302.778 141.514 300.597 139.843 300.61 137.755Z" fill="#DB5A9A"/>
<path d="M307.631 138.389C307.631 139.11 306.624 139.688 305.388 139.682C304.151 139.675 303.163 139.06 303.169 138.358" fill="#EA8BBF"/>
<path d="M408.086 533.511H353.285L348.507 508.926L343.965 485.539L340.337 466.9C340.055 465.444 340.438 463.938 341.382 462.793C342.326 461.649 343.731 460.986 345.214 460.985H390.316C392.708 460.982 394.763 462.685 395.206 465.036L399.058 485.539L403.463 508.926L408.086 533.511Z" fill="#FFF2EE"/>
<path d="M410.384 544.882L407.632 531.119L403.469 508.926L399.064 485.539L395.212 465.036C394.779 462.672 392.718 460.957 390.316 460.96H345.208C343.725 460.961 342.319 461.624 341.376 462.768C340.432 463.913 340.049 465.419 340.331 466.875L343.959 485.515L348.501 508.901L353.279 533.487H353.31V533.567C341.104 534.527 331.686 544.71 331.682 556.954C331.68 557.317 331.824 557.667 332.08 557.924C332.337 558.182 332.685 558.327 333.049 558.327H399.337C402.706 558.326 405.898 556.817 408.037 554.214C410.175 551.61 411.037 548.187 410.384 544.882Z" fill="#FFF2EE"/>
<path d="M399.337 558.346H388.396C391.77 558.348 394.967 556.837 397.107 554.229C399.247 551.62 400.104 548.19 399.443 544.882L396.697 531.119L392.528 508.926L388.123 485.539L384.27 465.036C383.828 462.685 381.773 460.982 379.381 460.985H390.316C392.708 460.982 394.763 462.685 395.206 465.036L399.058 485.539L403.463 508.926L407.626 531.119L410.372 544.882C411.035 548.188 410.18 551.618 408.042 554.226C405.905 556.834 402.71 558.346 399.337 558.346Z" fill="#FFFDFD"/>
<path d="M403.469 508.926H348.507L343.959 485.539H399.064L403.469 508.926Z" fill="#DB5A9A"/>
<path d="M403.469 508.926H367.681L357.895 498.748L364.717 485.539H399.095L403.469 508.926Z" fill="#8AB6C9"/>
<path d="M346.531 508.926H314.515L304.729 498.748L311.551 485.539H345.127L346.531 508.926Z" fill="#5787A0"/>
<path d="M346.531 508.926H337.609L336.205 485.539H345.127L346.531 508.926Z" fill="#8AB6C9"/>
<path d="M296.408 126.459L296.783 121.41L313.748 122.67L313.373 127.72L296.408 126.459Z" fill="#2B2137"/>
<path d="M324.916 138.352L317.131 137.774C314.325 137.566 311.717 136.252 309.881 134.121C308.044 131.989 307.13 129.216 307.339 126.41L307.643 122.31C307.785 120.391 309.451 118.947 311.371 119.079L326.245 120.185C328.164 120.327 329.608 121.993 329.476 123.913L328.644 135.096C328.583 136.023 328.156 136.888 327.456 137.499C326.757 138.11 325.842 138.417 324.916 138.352Z" fill="#2B2137"/>
<path d="M285.543 135.426L293.328 136.003C296.134 136.214 298.909 135.3 301.042 133.464C303.175 131.627 304.49 129.018 304.698 126.211L305.002 122.117C305.134 120.197 303.691 118.531 301.771 118.389L286.897 117.283C284.978 117.155 283.315 118.597 283.169 120.514L282.337 131.698C282.204 133.609 283.634 135.27 285.543 135.426Z" fill="#2B2137"/>
<path d="M302.797 122.813C302.803 122.891 302.803 122.97 302.797 123.049L302.554 126.348C302.385 128.608 301.323 130.707 299.604 132.184C297.885 133.66 295.65 134.393 293.39 134.22L290.283 133.99L287.177 133.773H287.084C286.337 133.719 285.644 133.37 285.155 132.803C284.667 132.237 284.424 131.499 284.48 130.753L284.685 128.019L285.151 121.75C285.27 120.2 286.621 119.039 288.171 119.153L294.086 119.594L299.752 120.01L300.138 120.048C300.735 120.085 301.302 120.319 301.753 120.713C302.389 121.228 302.77 121.994 302.797 122.813Z" fill="#382F44"/>
<path d="M327.09 124.639L326.419 133.636C326.303 135.188 324.952 136.353 323.4 136.239L317.143 135.78C315.377 135.648 313.695 134.968 312.334 133.835C311.855 133.439 311.42 132.993 311.035 132.505C310.134 131.35 309.549 129.979 309.339 128.529C309.239 127.9 309.214 127.262 309.265 126.628L309.513 123.341C309.564 122.595 309.911 121.9 310.477 121.411C311.043 120.922 311.781 120.679 312.527 120.737L317.615 121.116L323.282 121.533L324.493 121.626C324.88 121.653 325.257 121.76 325.599 121.943C326.288 122.306 326.796 122.938 327.003 123.689C327.085 123.999 327.115 124.32 327.09 124.639Z" fill="#382F44"/>
<path opacity="0.1" d="M323.282 121.533L311.035 132.505C310.134 131.35 309.549 129.979 309.339 128.529L317.621 121.116L323.282 121.533Z" fill="#F3F4FE"/>
<path opacity="0.1" d="M327.003 123.689L314.31 135.065C313.596 134.745 312.931 134.327 312.334 133.822L325.599 121.93C326.291 122.296 326.799 122.933 327.003 123.689Z" fill="#F3F4FE"/>
<path opacity="0.1" d="M299.802 119.998L285.356 132.953C284.77 132.372 284.468 131.563 284.53 130.741L284.735 128.007L294.135 119.582L299.802 119.998Z" fill="#F3F4FE"/>
<path opacity="0.1" d="M302.797 122.813L290.314 133.996L287.208 133.779L301.784 120.731C302.404 121.248 302.772 122.006 302.797 122.813Z" fill="#F3F4FE"/>
<path d="M294.943 116.593L328.7 119.041C331.578 119.25 334.42 118.307 336.603 116.419C338.785 114.531 340.129 111.854 340.337 108.976C340.848 101.934 338.54 94.9768 333.921 89.6364C329.302 84.296 322.75 81.0098 315.708 80.5009L313.353 80.3269C298.689 79.266 285.941 90.2922 284.878 104.956C284.669 107.834 285.613 110.677 287.5 112.859C289.388 115.042 292.065 116.385 294.943 116.593Z" fill="#DB5A9A"/>
<path d="M340.411 106.994C340.411 107.615 340.411 108.299 340.337 108.951C340.128 111.829 338.785 114.506 336.603 116.394C334.42 118.282 331.577 119.225 328.699 119.016L321.169 118.47C325.307 117.058 328.2 113.311 328.519 108.951C328.569 108.299 328.594 107.64 328.594 106.994C328.582 93.9434 319.109 82.8267 306.226 80.743C308.578 80.2782 310.981 80.1319 313.372 80.3081L315.72 80.4697C329.623 81.4875 340.39 93.0534 340.411 106.994Z" fill="#CC488E"/>
<path d="M302.163 161.919H321.424C323.03 161.919 324.332 163.221 324.332 164.826V169.915H299.255V164.826C299.255 164.055 299.561 163.316 300.107 162.77C300.652 162.225 301.392 161.919 302.163 161.919V161.919Z" fill="#FFF2EE"/>
<path d="M405.862 231.013C408.226 228.355 412.297 228.117 414.954 230.48C417.612 232.844 417.85 236.915 415.487 239.572L395.993 261.49C393.629 264.148 389.559 264.386 386.901 262.022C384.243 259.659 384.005 255.588 386.369 252.93L405.862 231.013Z" fill="#FFF2EE"/>
<path d="M254.803 163.406C258.096 162.064 261.855 163.646 263.197 166.94C264.539 170.233 262.957 173.992 259.663 175.334L232.499 186.403C229.205 187.745 225.447 186.163 224.105 182.869C222.763 179.575 224.345 175.817 227.639 174.475L254.803 163.406Z" fill="#F9CABD"/>
<path d="M280.751 107.386C281.077 102.887 284.989 99.5051 289.487 99.8315L336.51 103.243C341.008 103.57 344.391 107.481 344.064 111.98C343.738 116.479 339.826 119.861 335.327 119.535L288.305 116.123C283.806 115.797 280.424 111.885 280.751 107.386Z" fill="#5787A0"/>
<path d="M284.797 108.446C284.94 106.48 286.649 105.002 288.615 105.145L315.479 107.094C317.445 107.236 318.923 108.946 318.781 110.912C318.638 112.878 316.929 114.357 314.962 114.214L288.099 112.265C286.133 112.122 284.654 110.413 284.797 108.446Z" fill="#6197AF"/>
<path d="M344.096 111.343V111.964C343.768 116.465 339.854 119.847 335.354 119.52L326.755 118.898C328.912 119.052 331.042 118.342 332.676 116.925C334.309 115.508 335.313 113.5 335.466 111.343C335.466 111.138 335.466 110.939 335.466 110.722C335.463 106.443 332.154 102.895 327.886 102.595L336.491 103.216C340.764 103.513 344.083 107.059 344.096 111.343Z" fill="#44788E"/>
<path d="M291.389 99.072C291.249 99.0714 291.11 99.0461 290.979 98.9974C290.344 98.7638 290.013 98.065 290.234 97.4255C294.844 84.4896 305.661 83.5203 306.121 83.483C306.807 83.4316 307.405 83.9462 307.457 84.6325C307.508 85.3188 306.993 85.9168 306.307 85.9683C305.897 85.9683 296.602 86.9127 292.551 98.2829C292.364 98.7605 291.902 99.074 291.389 99.072Z" fill="#E288B9"/>
<path d="M347.621 341.569C347.293 339.541 348.671 337.632 350.698 337.304C352.726 336.977 354.635 338.355 354.963 340.382L373.069 452.419C373.396 454.446 372.018 456.355 369.991 456.683C367.963 457.011 366.054 455.633 365.727 453.605L347.621 341.569Z" fill="#A8D4E5"/>
</svg>
