<svg width="682" height="682" viewBox="0 0 682 682" fill="none" xmlns="http://www.w3.org/2000/svg">
<path d="M22.8607 448.733V455.691C22.8502 466.951 24.9918 478.11 29.17 488.567C29.678 489.833 30.2126 491.082 30.7741 492.317C31.6652 494.259 32.6166 496.164 33.628 498.031C33.9622 498.639 34.2963 499.241 34.6439 499.836C39.1972 507.726 44.9364 514.87 51.6603 521.016C51.9678 521.303 52.2819 521.584 52.5961 521.865L52.6896 521.945L53.7657 522.881C58.7625 527.175 64.2261 530.895 70.0536 533.969C71.6443 534.811 73.2684 535.606 74.9126 536.348C78.1716 537.828 81.5199 539.103 84.938 540.165C85.7467 540.419 86.5621 540.659 87.3775 540.886C89.3425 541.441 91.3275 541.929 93.3459 542.343C99.2829 543.569 105.33 544.185 111.392 544.181H147.249C152.091 544.181 156.735 546.105 160.158 549.53C163.582 552.954 165.504 557.599 165.502 562.441V630.554H470.782V562.441C470.775 555.508 474.706 549.172 480.921 546.1C481.398 545.852 481.886 545.629 482.385 545.431C484.513 544.59 486.781 544.162 489.068 544.168H549.428C550.384 544.168 551.326 544.168 552.275 544.128C557.49 543.97 562.682 543.369 567.795 542.33C569.804 541.925 571.789 541.452 573.75 540.913C579.23 539.409 584.558 537.396 589.663 534.898C590.332 534.584 590.94 534.27 591.575 533.935C597.534 530.862 603.137 527.144 608.284 522.847L608.631 522.56C608.885 522.346 609.139 522.132 609.387 521.892L610.449 520.963C611.826 519.753 613.163 518.49 614.459 517.193C619.695 511.958 624.282 506.113 628.121 499.782C629.598 497.349 630.968 494.843 632.211 492.263C632.813 491.033 633.387 489.777 633.922 488.514C636.339 482.921 638.186 477.099 639.436 471.136C641.676 460.403 641.997 449.359 640.385 438.514C640.205 437.251 639.984 436.001 639.717 434.758C639.623 434.243 639.516 433.728 639.409 433.22C639.256 432.452 639.082 431.69 638.901 430.928C638.429 428.923 637.888 426.94 637.277 424.979C636.939 423.883 636.578 422.794 636.195 421.711C633.861 415.052 630.761 408.687 626.958 402.743C622.726 396.124 617.668 390.071 611.906 384.731C610.509 383.434 609.073 382.178 607.595 380.981C606.927 380.433 606.259 379.905 605.59 379.391C603.616 377.862 601.576 376.414 599.468 375.046C591.533 369.877 582.844 365.972 573.71 363.47C571.076 362.748 568.403 362.145 565.689 361.659C563.671 361.289 561.63 360.993 559.567 360.77C557.241 360.516 554.889 360.342 552.503 360.269C551.473 360.269 550.437 360.215 549.401 360.215H478.555C470.059 360.226 462.199 355.714 457.923 348.372C457.656 347.931 457.408 347.476 457.181 347.035C456.799 346.276 456.458 345.498 456.158 344.703C455.255 342.283 454.752 339.732 454.668 337.15C454.668 337.083 454.668 337.017 454.668 336.95C454.668 336.749 454.668 336.542 454.668 336.335C454.668 336.241 454.668 336.148 454.668 336.061C454.668 335.974 454.668 335.914 454.668 335.84C454.704 334.201 454.912 332.57 455.29 330.975C455.575 329.691 455.975 328.436 456.486 327.225C456.901 326.209 457.388 325.224 457.943 324.278C461.526 318.148 467.648 313.928 474.652 312.762C474.852 312.728 475.046 312.695 475.247 312.675C476.353 312.514 477.47 312.436 478.589 312.441H598.105H599.508C613.84 312.107 627.488 306.25 637.605 296.093C638.226 295.471 638.835 294.836 639.423 294.188C643.953 289.212 647.55 283.462 650.043 277.212C650.533 275.982 650.979 274.732 651.38 273.462C656.302 257.884 654.17 240.933 645.545 227.058C644.779 225.815 643.956 224.607 643.079 223.435C642.13 222.139 641.123 220.889 640.058 219.686C639.85 219.445 639.637 219.205 639.389 218.971C638.801 218.302 638.193 217.688 637.571 217.066C627.455 206.909 613.806 201.052 599.475 200.718H598.071C589.467 200.729 581.03 198.333 573.716 193.8C570.821 192 568.132 189.889 565.696 187.504C560.587 182.514 556.699 176.411 554.334 169.673C553.906 168.449 553.525 167.193 553.204 165.923C552.93 164.86 552.69 163.791 552.496 162.702C552.001 159.965 551.753 157.189 551.754 154.407V107.221C551.756 102.379 549.833 97.7345 546.41 94.31C542.987 90.8854 538.343 88.9614 533.501 88.9614H108.063C90.1109 88.9469 73.2496 97.5766 62.7618 112.147C62.2137 112.882 61.6991 113.637 61.2045 114.399C60.8837 114.894 60.5361 115.388 60.2621 115.896C51.1204 130.999 49.6439 149.53 56.2787 165.89C56.7933 167.16 57.3615 168.409 57.9697 169.639C63.8061 181.368 73.5652 190.682 85.5529 195.966C87.5551 196.846 89.6084 197.605 91.7018 198.238C97.0122 199.865 102.536 200.69 108.09 200.685H153.538C156.593 200.681 159.633 201.108 162.568 201.954C163.544 202.242 164.506 202.569 165.442 202.937C166.698 203.43 167.921 204.001 169.105 204.648C169.947 205.109 170.769 205.61 171.564 206.145C176.274 209.315 180.077 213.657 182.599 218.744C182.752 219.051 182.9 219.358 183.04 219.673C183.604 220.889 184.086 222.142 184.484 223.422C185.463 226.575 185.954 229.859 185.941 233.16C185.945 244.017 180.52 254.156 171.484 260.175C169.565 261.463 167.512 262.539 165.362 263.383C161.571 264.878 157.533 265.642 153.458 265.636C152.863 265.636 152.275 265.636 151.687 265.676C144.571 265.958 137.645 268.056 131.569 271.771C130.848 272.206 130.146 272.66 129.457 273.141L129.036 273.442C127.788 274.326 126.592 275.281 125.454 276.303C125.126 276.59 124.786 276.891 124.485 277.192C116.084 285.137 111.331 296.193 111.345 307.756V336.495C111.369 348.986 103.488 360.125 91.7018 364.259C91.3074 364.399 90.9064 364.526 90.5054 364.647C88.9147 365.121 87.2705 365.642 85.5796 366.231C82.1776 367.387 78.6019 368.77 74.946 370.408C68.4249 373.3 62.2169 376.852 56.4191 381.008C54.8551 382.138 53.3045 383.327 51.7874 384.584L51.5801 384.758C49.575 386.435 47.5699 388.24 45.6652 390.158C41.8404 393.993 38.4307 398.22 35.4927 402.77C31.7018 408.655 28.7482 415.039 26.7171 421.738C26.3874 422.807 26.08 423.897 25.7948 425.006C25.2936 426.931 24.8458 428.916 24.4581 430.955C24.2264 432.211 24.0192 433.488 23.8365 434.784C23.6628 436.014 23.509 437.271 23.3954 438.54C23.0437 441.927 22.8652 445.329 22.8607 448.733Z" fill="#F0F9F8"/>
<path opacity="0.11" d="M60.2887 115.863H551.787V112.114H62.7616C62.2136 112.849 61.6989 113.604 61.2044 114.366C60.8835 114.86 60.5694 115.355 60.2887 115.863Z" fill="#34829B"/>
<path opacity="0.11" d="M56.2786 165.89C56.7932 167.16 57.3614 168.409 57.9696 169.639H554.367C553.939 168.416 553.559 167.16 553.238 165.89H56.2786Z" fill="#34829B"/>
<path opacity="0.11" d="M183.033 219.673C183.597 220.889 184.079 222.142 184.477 223.422H643.099C642.15 222.125 641.143 220.876 640.078 219.673H183.033Z" fill="#34829B"/>
<path opacity="0.11" d="M124.505 277.198H650.05C650.54 275.969 650.985 274.719 651.386 273.449H129.056C127.808 274.333 126.612 275.288 125.474 276.31C125.12 276.597 124.826 276.898 124.505 277.198Z" fill="#34829B"/>
<path opacity="0.11" d="M111.365 327.232V330.975H455.29C455.575 329.691 455.975 328.436 456.486 327.225L111.365 327.232Z" fill="#34829B"/>
<path opacity="0.11" d="M51.5534 384.758H611.926C610.53 383.461 609.093 382.204 607.615 381.008H56.3923C54.8283 382.138 53.2777 383.327 51.7605 384.584L51.5534 384.758Z" fill="#34829B"/>
<path opacity="0.11" d="M23.3753 438.541H640.378C640.198 437.277 639.977 436.028 639.71 434.784H23.8164C23.6426 436.014 23.4888 437.244 23.3753 438.541Z" fill="#34829B"/>
<path opacity="0.11" d="M29.1766 488.567C29.6846 489.833 30.2192 491.083 30.7807 492.317H632.204C632.806 491.087 633.381 489.831 633.915 488.567H29.1766Z" fill="#34829B"/>
<path opacity="0.11" d="M93.3392 542.343C99.2762 543.569 105.323 544.185 111.385 544.181H147.249C150.077 544.177 152.868 544.833 155.396 546.1H480.921C481.398 545.853 481.886 545.629 482.385 545.431C484.513 544.59 486.781 544.162 489.068 544.168H549.428C550.384 544.168 551.326 544.168 552.275 544.128C557.49 543.97 562.682 543.369 567.795 542.33L93.3392 542.343Z" fill="#34829B"/>
<path opacity="0.11" d="M470.782 596.126H165.502V599.876H470.782L470.782 596.126Z" fill="#34829B"/>
<rect width="49.4987" height="11.7698" rx="5.88489" transform="matrix(1 0 0 -1 573.756 642.323)" fill="#6EC3C8"/>
<rect width="541.332" height="11.7698" rx="5.88489" transform="matrix(1 0 0 -1 27.6327 642.323)" fill="#6EC3C8"/>
<path d="M379.197 457.027H191.789V631.543H379.197V457.027Z" fill="#54A8BA"/>
<path d="M379.197 502.275H178.856V577.292H379.197V502.275Z" fill="#34829B"/>
<path d="M220.261 293.419H215.041C127.263 293.419 56.1049 364.578 56.1049 452.355V457.034H379.197V452.355C379.197 364.578 308.039 293.419 220.261 293.419V293.419Z" fill="#54A8BA"/>
<path d="M56.1049 452.355V457.034H134.477V452.355C134.477 377.172 186.682 314.179 256.827 297.657C244.837 294.832 232.559 293.41 220.241 293.419H215.021C127.258 293.419 56.1049 364.58 56.1049 452.355Z" fill="#34829B"/>
<path d="M379.197 457.027V631.536H427.887C432.685 631.536 436.576 627.646 436.576 622.848V514.379C436.576 482.701 410.895 457.021 379.217 457.021L379.197 457.027Z" fill="#BBF3FF"/>
<path d="M417.634 119.499V389.516C417.625 392.42 418.772 395.207 420.82 397.265C422.869 399.322 425.652 400.481 428.555 400.484H541.595C544.495 400.486 547.278 399.334 549.329 397.283C551.38 395.232 552.531 392.45 552.529 389.55V360.296C551.5 360.296 550.464 360.242 549.428 360.242H478.582C470.085 360.253 462.225 355.741 457.95 348.399C457.682 347.958 457.435 347.503 457.208 347.062C456.826 346.303 456.485 345.524 456.185 344.729C455.282 342.309 454.779 339.759 454.695 337.177V335.84C454.927 324.34 463.324 314.64 474.672 312.762C474.873 312.728 475.066 312.695 475.267 312.675C476.373 312.515 477.49 312.436 478.609 312.441H552.529V119.499C552.531 116.598 551.38 113.816 549.329 111.765C547.278 109.714 544.495 108.563 541.595 108.564H428.555C422.522 108.572 417.634 113.465 417.634 119.499Z" fill="#6EC3C8"/>
<path d="M430.901 134.978V374.05C430.905 380.088 435.798 384.981 441.835 384.985H528.328C534.367 384.985 539.262 380.089 539.262 374.05V360.242H478.548C470.052 360.253 462.192 355.741 457.916 348.399C457.649 347.958 457.402 347.503 457.174 347.062C456.793 346.303 456.451 345.524 456.152 344.729C455.249 342.309 454.745 339.759 454.661 337.177V335.84C454.893 324.34 463.29 314.64 474.639 312.762C474.839 312.728 475.033 312.695 475.233 312.675C476.34 312.515 477.457 312.436 478.575 312.441H539.262V134.978C539.262 132.078 538.11 129.297 536.06 127.246C534.009 125.196 531.228 124.044 528.328 124.044H441.835C435.797 124.044 430.901 128.939 430.901 134.978Z" fill="#E9FFFC"/>
<path d="M430.901 162.481V374.05C430.905 380.088 435.798 384.981 441.835 384.985H506.626V360.255H478.555C470.059 360.266 462.199 355.754 457.923 348.412C457.656 347.971 457.408 347.516 457.181 347.075C456.799 346.316 456.458 345.538 456.158 344.743C455.255 342.323 454.752 339.772 454.668 337.19V335.854C454.9 324.353 463.297 314.653 474.645 312.775C474.846 312.742 475.04 312.708 475.24 312.688C476.347 312.528 477.464 312.45 478.582 312.454H506.653V278.441C506.653 276.227 504.858 274.431 502.643 274.431H481.79C479.575 274.431 477.78 272.636 477.78 270.421V166.491C477.78 164.276 475.984 162.481 473.77 162.481L430.901 162.481Z" fill="#CDF5F0"/>
<path d="M497.343 288.741H492.317V293.767H497.343V288.741Z" fill="#E9FFFC"/>
<path d="M497.343 311.225H492.317V312.448H497.343V311.225Z" fill="#E9FFFC"/>
<path d="M497.343 360.242H492.317V361.218H497.343V360.242Z" fill="#E9FFFC"/>
<path d="M497.343 378.675H492.317V383.701H497.343V378.675Z" fill="#E9FFFC"/>
<path d="M475.233 310.737V312.681C476.34 312.521 477.457 312.443 478.575 312.448H480.286V310.737H475.233Z" fill="#E9FFFC"/>
<path d="M468.764 170.428H463.738V175.454H468.764V170.428Z" fill="#E9FFFC"/>
<path d="M468.764 201.887H463.738V206.914H468.764V201.887Z" fill="#E9FFFC"/>
<path d="M468.764 233.341H463.738V238.367H468.764V233.341Z" fill="#E9FFFC"/>
<path d="M468.764 264.8H463.738V269.826H468.764V264.8Z" fill="#E9FFFC"/>
<path d="M468.764 296.253H463.738V301.279H468.764V296.253Z" fill="#E9FFFC"/>
<path d="M468.764 359.166H463.738V364.192H468.764V359.166Z" fill="#E9FFFC"/>
<path d="M457.174 187.431H452.148V192.457H457.174V187.431Z" fill="#E9FFFC"/>
<path d="M457.174 218.884H452.148V223.91H457.174V218.884Z" fill="#E9FFFC"/>
<path d="M457.174 250.344H452.148V255.37H457.174V250.344Z" fill="#E9FFFC"/>
<path d="M457.174 281.797H452.148V286.823H457.174V281.797Z" fill="#E9FFFC"/>
<path d="M457.174 313.25H452.148V318.276H457.174V313.25Z" fill="#E9FFFC"/>
<path d="M452.148 344.709V349.735H457.174V347.062C456.793 346.303 456.451 345.524 456.152 344.729L452.148 344.709Z" fill="#E9FFFC"/>
<path d="M457.174 376.162H452.148V381.188H457.174V376.162Z" fill="#E9FFFC"/>
<path d="M442.938 170.14H437.912V175.166H442.938V170.14Z" fill="#E9FFFC"/>
<path d="M442.938 201.593H437.912V206.619H442.938V201.593Z" fill="#E9FFFC"/>
<path d="M442.938 233.053H437.912V238.079H442.938V233.053Z" fill="#E9FFFC"/>
<path d="M442.938 264.506H437.912V269.532H442.938V264.506Z" fill="#E9FFFC"/>
<path d="M442.938 295.959H437.912V300.985H442.938V295.959Z" fill="#E9FFFC"/>
<path d="M442.938 327.419H437.912V332.445H442.938V327.419Z" fill="#E9FFFC"/>
<path d="M442.938 358.872H437.912V363.898H442.938V358.872Z" fill="#E9FFFC"/>
<path d="M454.661 337.157V390.8H457.916V348.399C457.649 347.958 457.402 347.503 457.174 347.062C456.793 346.303 456.451 345.524 456.152 344.73C455.247 342.303 454.743 339.745 454.661 337.157Z" fill="#6EC3C8"/>
<path d="M454.661 118.229V335.847C454.735 331.777 455.856 327.795 457.916 324.284V118.229H454.661Z" fill="#6EC3C8"/>
<path d="M518.196 118.229H514.941V312.448H518.196V118.229Z" fill="#6EC3C8"/>
<path d="M518.196 360.242H514.941V390.8H518.196V360.242Z" fill="#6EC3C8"/>
<path d="M419.753 140.205V143.46H551.981V140.205L419.753 140.205Z" fill="#6EC3C8"/>
<path d="M419.753 252.884V256.138H551.981V252.884H419.753Z" fill="#6EC3C8"/>
<path d="M547.49 215.308H422.68V230.052H547.49V215.308Z" fill="#6EC3C8"/>
<path d="M162.514 201.981C163.49 202.269 164.453 202.596 165.388 202.964C166.644 203.456 167.867 204.028 169.051 204.675C169.893 205.136 170.715 205.637 171.511 206.172C174.599 208.222 177.312 210.788 179.531 213.758H333.808C337.06 213.758 339.697 211.121 339.697 207.869C339.697 204.617 337.06 201.981 333.808 201.981H162.514Z" fill="#62B7AD"/>
<path d="M364.332 600.992L357.649 479.738C356.915 466.997 366.649 456.072 379.391 455.337L380.005 455.296C392.747 454.563 403.672 464.296 404.407 477.038L411.091 598.292C411.201 600.231 409.721 601.893 407.783 602.008L368.049 604.301C366.11 604.411 364.447 602.931 364.332 600.992Z" fill="#015D76"/>
<path d="M371.107 599.685L371.637 616.453L405.833 615.372L405.304 598.604L371.107 599.685Z" fill="#015D76"/>
<path d="M376.978 455.566L291.835 459.701C286.699 459.95 282.738 464.316 282.988 469.452L283.369 477.309C284.233 495.102 299.358 508.826 317.151 507.962L379.368 504.94C393.01 504.278 403.532 492.682 402.869 479.041C402.207 465.399 390.611 454.878 376.97 455.54L376.978 455.566Z" fill="#015D76"/>
<path d="M386.281 619.419L419.927 621.263C420.339 615.205 417.459 609.393 412.389 606.051C407.319 602.709 400.842 602.354 395.437 605.121C390.032 607.889 386.534 613.351 386.281 619.419Z" fill="#015D76"/>
<path d="M423.335 625.367L423.395 620.207C423.423 617.971 421.703 616.099 419.472 615.937L375.253 612.682C373.798 612.577 372.363 613.077 371.288 614.066C370.214 615.054 369.596 616.442 369.579 617.902L369.472 627.459L423.335 625.367Z" fill="#015D76"/>
<path d="M369.499 624.612L369.465 627.713C369.455 628.662 369.821 629.575 370.484 630.253C371.147 630.932 372.053 631.318 373.001 631.329L420.849 631.857C422.399 631.875 423.893 631.276 425.002 630.191C426.11 629.107 426.741 627.626 426.757 626.076C426.775 624.525 426.176 623.03 425.092 621.921C424.008 620.811 422.527 620.178 420.976 620.161L407.575 620.014C404.805 619.988 402.536 622.209 402.502 624.98L369.499 624.612Z" fill="#015D76"/>
<path d="M367.338 420.206C376.539 418.674 382.757 409.974 381.225 400.772C379.694 391.571 370.993 385.354 361.792 386.885L303.155 396.645C293.954 398.177 287.736 406.877 289.268 416.078C290.799 425.28 299.5 431.497 308.701 429.966L367.338 420.206Z" fill="#F9A0B4"/>
<ellipse rx="21.5346" ry="17.4308" transform="matrix(-0.99945 -0.0331551 -0.0331552 0.99945 370.869 402.981)" fill="#F9A0B4"/>
<path d="M357.769 387.264C356.634 387.866 355.784 388.894 355.408 390.123C355.032 391.352 355.16 392.68 355.764 393.814C356.367 394.95 357.397 395.799 358.627 396.175C359.857 396.551 361.185 396.423 362.321 395.819L375.634 388.708C376.77 388.106 377.619 387.077 377.995 385.848C378.371 384.62 378.243 383.292 377.639 382.158C377.038 381.022 376.009 380.173 374.78 379.797C373.552 379.421 372.224 379.549 371.09 380.153" fill="#F9A0B4"/>
<ellipse rx="14.8777" ry="14.8777" transform="matrix(-1 0 0 1 308.023 279.698)" fill="#4F182E"/>
<path d="M309.313 294.516C309.654 294.516 309.981 294.449 310.349 294.389C318.47 293.097 324.006 285.466 322.714 277.345C321.422 269.225 313.791 263.689 305.671 264.981C305.323 265.034 305.002 265.094 304.655 265.175C312.427 264.516 319.389 269.972 320.606 277.677C321.824 285.382 316.883 292.719 309.286 294.489L309.313 294.516Z" fill="#622F2B"/>
<path d="M291.274 282.345C292.557 290.459 300.175 295.998 308.29 294.716C308.638 294.663 308.979 294.596 309.313 294.516C316.91 292.746 321.85 285.409 320.633 277.704C319.415 269.999 312.454 264.543 304.681 265.201C304.334 265.201 304.013 265.275 303.645 265.328C295.531 266.612 289.992 274.23 291.274 282.345Z" fill="#512522"/>
<path d="M260.001 347.643L299.02 354.534L303.806 327.426L306.325 313.116L267.307 306.232L265.428 316.879L260.001 347.643Z" fill="#FFB2BF"/>
<path d="M302.057 339.995C302.843 337.291 301.288 334.461 298.583 333.674L266.906 324.465C264.201 323.679 261.371 325.234 260.585 327.939L257.155 339.734C256.369 342.439 257.924 345.269 260.629 346.055L292.307 355.264C295.012 356.05 297.842 354.495 298.628 351.791L302.057 339.995Z" fill="#FFFAEE"/>
<path d="M302.01 393.266L226.846 397.024L231.038 480.863L306.202 477.105L302.01 393.266Z" fill="#FFFAEE"/>
<ellipse rx="50.6015" ry="49.3517" transform="matrix(-0.0497214 -0.998763 -0.998763 0.0497214 275.498 385.705)" fill="#FFFAEE"/>
<path d="M275.4 436.321C276.263 436.321 277.125 436.321 277.994 436.261C305.216 434.925 326.156 411.178 324.779 383.267C323.402 355.356 300.197 333.808 272.974 335.179C272.146 335.219 271.323 335.286 270.508 335.366C296.574 335.459 318.369 356.493 319.713 383.488C321.056 410.483 301.406 433.701 275.4 436.321Z" fill="white"/>
<path d="M231.275 479.872C231.665 488.604 235.536 496.817 242.022 502.676C247.522 507.666 254.649 510.484 262.073 510.603H262.414C262.942 510.603 263.463 510.603 263.998 510.603L324.184 507.676C330.563 507.355 336.534 504.447 340.719 499.622C343.633 496.291 345.607 492.245 346.44 487.899C346.801 486.028 346.949 484.122 346.882 482.218C346.414 468.416 334.677 457.676 321.337 458.324L230.44 462.742L231.275 479.872Z" fill="#008891"/>
<path d="M306.6 497.276L307.395 498.145L316.424 508.03L362.541 558.511L405.163 605.143C407.071 607.223 410.303 607.367 412.388 605.463L439.416 580.734C440.418 579.82 441.015 578.544 441.077 577.189C441.138 575.834 440.658 574.51 439.744 573.509L423.302 555.544L358.538 484.697L341.16 465.696C332.436 456.149 317.624 455.481 308.077 464.205C298.529 472.93 297.862 487.742 306.586 497.289L306.6 497.276Z" fill="#008891"/>
<path d="M413.142 604.773L427.785 620.799L453.299 597.486L438.655 581.46L413.142 604.773Z" fill="#FFB2BF"/>
<path d="M413.14 604.769L417.951 610.033L443.464 586.72L438.654 581.455L413.14 604.769Z" fill="#F9A0B4"/>
<ellipse rx="25.6851" ry="25.6851" transform="matrix(-1 0 0 1 258.544 369.84)" fill="#F9CABD"/>
<path d="M276.764 372.097C277.467 361.486 269.435 352.314 258.823 351.611C248.212 350.908 239.04 358.94 238.337 369.552L234.488 427.658C233.785 438.27 241.817 447.442 252.429 448.144C263.04 448.847 272.212 440.815 272.915 430.204L276.764 372.097Z" fill="#329DA3"/>
<circle r="21.7819" transform="matrix(-1 0 0 1 254.962 427.098)" fill="#F9CABD"/>
<path d="M253.285 413.151C243.963 413.489 236.681 421.32 237.019 430.642C237.358 439.964 245.189 447.246 254.511 446.907L313.915 444.75C323.237 444.411 330.519 436.58 330.181 427.259C329.842 417.937 322.011 410.655 312.689 410.993L253.285 413.151Z" fill="#FFB2BF"/>
<ellipse rx="21.5346" ry="17.4308" transform="matrix(-0.98694 -0.161087 -0.161087 0.98694 319.572 428.109)" fill="#FFB2BF"/>
<path d="M323.672 431.558C321.022 431.199 318.582 433.056 318.223 435.706C317.864 438.356 319.721 440.796 322.371 441.155L337.332 443.183C339.982 443.543 342.422 441.686 342.781 439.035C343.14 436.385 341.283 433.946 338.633 433.587L323.672 431.558Z" fill="#FFB2BF"/>
<path d="M333.247 423.658C330.597 423.299 328.158 425.156 327.799 427.806C327.44 430.457 329.298 432.896 331.948 433.255L346.909 435.28C349.56 435.639 351.999 433.781 352.358 431.131C352.716 428.481 350.859 426.042 348.209 425.683L333.247 423.658Z" fill="#FFB2BF"/>
<path d="M326.69 413.068C324.04 412.709 321.601 414.566 321.242 417.216C320.882 419.866 322.739 422.306 325.389 422.665L340.351 424.693C343.001 425.053 345.44 423.196 345.8 420.545C346.159 417.895 344.302 415.456 341.652 415.097L326.69 413.068Z" fill="#FFB2BF"/>
<path d="M308.633 410.878C306.132 411.824 304.871 414.619 305.818 417.121C306.765 419.622 309.56 420.882 312.061 419.935L326.182 414.591C328.683 413.644 329.943 410.85 328.996 408.348C328.05 405.847 325.255 404.587 322.754 405.534L308.633 410.878Z" fill="#FFB2BF"/>
<path d="M267.946 429.356C264.603 429.477 261.99 432.286 262.112 435.63C262.233 438.974 265.042 441.587 268.386 441.465L292.351 440.595C295.695 440.473 298.307 437.664 298.186 434.32C298.065 430.976 295.255 428.364 291.911 428.485L267.946 429.356Z" fill="#FDC3CD"/>
<path d="M265.428 316.879C271.056 324.791 280.259 329.375 289.964 329.103L297.209 328.903C299.484 328.845 301.725 328.341 303.806 327.419L306.325 313.116L267.307 306.245L265.428 316.879Z" fill="#F9A0B4"/>
<path d="M300.399 259.289L276.955 259.931C268.203 260.171 261.302 267.461 261.542 276.213L262.137 297.913C262.581 313.988 275.969 326.662 292.044 326.225L299.3 326.026C308.971 325.761 316.596 317.706 316.331 308.035L315.383 273.474C315.163 265.419 308.454 259.068 300.399 259.289V259.289Z" fill="#FFB2BF"/>
<path d="M271.49 261.051C272.275 260.915 273.068 260.837 273.863 260.817L297.303 260.148C305.359 259.931 312.068 266.282 312.294 274.338L313.276 308.919C313.475 316.287 309.044 322.993 302.188 325.701C310.587 324.058 316.568 316.585 316.331 308.03L315.388 273.496C315.159 265.442 308.451 259.096 300.397 259.313L276.958 259.981C275.086 260.007 273.234 260.369 271.49 261.051Z" fill="#FDC3CD"/>
<path d="M317.061 315.133C316.747 303.655 307.188 294.606 295.71 294.921C284.233 295.235 275.184 304.794 275.498 316.272L275.727 324.61C276.041 336.087 285.601 345.136 297.078 344.822C308.555 344.507 317.604 334.948 317.29 323.471L317.061 315.133Z" fill="#622F2B"/>
<path d="M321.985 315.131C321.671 303.654 312.112 294.605 300.634 294.919C289.157 295.234 280.108 304.793 280.422 316.27L280.651 324.608C280.965 336.086 290.525 345.135 302.002 344.82C313.479 344.506 322.528 334.946 322.214 323.469L321.985 315.131Z" fill="#622F2B"/>
<path d="M299.809 344.79C300.437 344.83 301.072 344.836 301.707 344.823H302.289C313.604 344.513 322.526 335.091 322.219 323.776L321.972 314.854C321.832 309.409 319.531 304.243 315.578 300.497C311.625 296.75 306.343 294.73 300.898 294.883H300.317H299.849C310.412 295.573 318.713 304.192 319.004 314.773L319.245 323.696C319.587 334.845 310.949 344.22 299.809 344.79Z" fill="#774340"/>
<path d="M272.248 269.996L261.204 270.298C258.415 270.375 256.215 272.698 256.292 275.488L256.808 294.342C256.892 297.378 259.421 299.773 262.458 299.689L262.498 299.688C268.331 299.528 272.931 294.67 272.771 288.836L272.255 269.995L272.248 269.996Z" fill="#622F2B"/>
<ellipse rx="9.17662" ry="9.17657" transform="matrix(-1 0 0 1 263.751 292.497)" fill="#FFB2BF"/>
<path d="M320.515 264.806C320.295 256.764 313.596 250.423 305.554 250.643L271.14 251.586C263.098 251.807 256.757 258.505 256.978 266.547C257.198 274.589 263.896 280.93 271.938 280.709L306.353 279.766C314.395 279.546 320.735 272.848 320.515 264.806Z" fill="#622F2B"/>
<path d="M307.954 265.143C307.821 260.282 303.772 256.449 298.911 256.582L278.093 257.153C273.231 257.286 269.398 261.335 269.531 266.196C269.665 271.058 273.714 274.891 278.575 274.757L299.393 274.187C304.255 274.054 308.088 270.005 307.954 265.143Z" fill="#774340"/>
<path d="M262.073 255.076C263.454 254.603 264.899 254.344 266.358 254.307L300.771 253.365C304.633 253.259 308.379 254.691 311.184 257.347C313.989 260.003 315.624 263.665 315.729 267.527V267.941C315.729 272.187 313.873 276.22 310.65 278.983C316.551 276.979 320.52 271.44 320.521 265.208C320.521 265.074 320.521 264.927 320.521 264.793C320.296 256.761 313.61 250.428 305.577 250.638L271.163 251.58C267.821 251.663 264.61 252.898 262.073 255.076Z" fill="#774340"/>
<path d="M303.311 300.598C303.322 302.209 302.695 303.758 301.567 304.909C301.426 305.049 301.279 305.183 301.132 305.31C300.05 306.214 298.686 306.713 297.276 306.72H297.029C293.864 306.743 291.212 304.332 290.933 301.179C290.933 301.019 290.933 300.845 290.933 300.678C290.928 300.365 291.049 300.063 291.269 299.84C291.489 299.617 291.79 299.493 292.103 299.495L302.128 299.428C302.44 299.426 302.74 299.548 302.962 299.768C303.184 299.987 303.309 300.286 303.311 300.598Z" fill="#962F4A"/>
<path d="M297.142 305.784C297.144 306.098 297.115 306.412 297.055 306.72C293.892 306.739 291.241 304.33 290.96 301.179C291.394 301.052 291.844 300.985 292.297 300.979C294.957 300.979 297.12 303.124 297.142 305.784Z" fill="#E1617F"/>
<path d="M301.901 299.428C301.861 300.624 300.03 301.587 297.764 301.607C295.498 301.627 293.66 300.678 293.607 299.481L301.901 299.428Z" fill="white"/>
<path d="M294.93 306.359C295.661 305.952 296.486 305.74 297.323 305.744C298.098 305.735 298.865 305.906 299.562 306.245C298.834 306.553 298.053 306.714 297.263 306.72H297.015C296.304 306.724 295.598 306.602 294.93 306.359Z" fill="white"/>
<ellipse rx="2.08525" ry="2.0853" transform="matrix(-1 0 0 1 288.3 291.902)" fill="#592702"/>
<ellipse rx="2.08525" ry="2.0853" transform="matrix(-1 0 0 1 307.97 291.394)" fill="#592702"/>
<path d="M440.051 614.065L466.698 593.44C463.036 588.615 457.066 586.128 451.061 586.926C445.057 587.723 439.942 591.682 437.665 597.294C435.388 602.907 436.299 609.31 440.051 614.065Z" fill="#008891"/>
<path d="M471.965 594.308L468.623 590.372C467.182 588.661 464.657 588.368 462.862 589.703L427.299 616.177C426.128 617.049 425.37 618.366 425.203 619.816C425.036 621.266 425.475 622.721 426.416 623.837L432.565 631.142L471.965 594.308Z" fill="#FFFAEE"/>
<path d="M430.761 628.97L432.766 631.322C433.381 632.051 434.261 632.505 435.211 632.584C436.162 632.663 437.105 632.361 437.832 631.743L474.345 600.852C476.8 598.758 477.099 595.072 475.013 592.611C472.921 590.151 469.233 589.852 466.772 591.942L456.546 600.631C454.446 602.418 454.183 605.565 455.958 607.676L430.761 628.97Z" fill="#008891"/>
<path d="M260.342 292.644C260.311 294.392 261.33 295.988 262.929 296.694C263.311 296.847 263.744 296.801 264.085 296.571C264.426 296.341 264.632 295.956 264.633 295.545L264.733 289.897C264.743 289.465 264.529 289.059 264.168 288.821C263.807 288.583 263.349 288.548 262.956 288.728C261.393 289.41 260.372 290.94 260.342 292.644Z" fill="#F9A0B4"/>
<path d="M328.573 457.025L337.308 456.913L337.286 455.242C337.266 453.658 335.965 452.391 334.382 452.412L331.381 452.451C329.798 452.471 328.531 453.771 328.551 455.355L328.573 457.025H328.573Z" fill="#D7FDFF"/>
<path d="M319.835 457.14L328.57 457.027L328.548 455.356C328.528 453.773 327.228 452.506 325.644 452.526L322.65 452.565C321.067 452.585 319.8 453.885 319.82 455.469L319.842 457.14L319.835 457.14Z" fill="#D7FDFF"/>
<path d="M311.104 457.248L319.839 457.135L319.817 455.464C319.797 453.881 318.497 452.614 316.913 452.634L313.919 452.673C312.336 452.693 311.069 453.993 311.089 455.577L311.111 457.247L311.104 457.248Z" fill="#D7FDFF"/>
<path d="M302.367 457.355L311.101 457.242L311.08 455.572C311.059 453.988 309.759 452.721 308.176 452.742L305.168 452.78C303.585 452.801 302.318 454.101 302.338 455.684L302.36 457.355L302.367 457.355Z" fill="#D7FDFF"/>
<path d="M293.636 457.476L302.37 457.363L302.349 455.693C302.328 454.109 301.028 452.842 299.445 452.863L296.451 452.901C294.867 452.922 293.6 454.222 293.621 455.805L293.642 457.476L293.636 457.476Z" fill="#D7FDFF"/>
<path d="M284.905 457.584L293.639 457.471L293.618 455.8C293.597 454.217 292.297 452.95 290.714 452.97L287.72 453.009C286.136 453.03 284.869 454.33 284.89 455.913L284.911 457.584L284.905 457.584Z" fill="#D7FDFF"/>
<path d="M276.167 457.692L284.902 457.579L284.88 455.908C284.86 454.325 283.56 453.058 281.976 453.078L278.982 453.117C277.399 453.137 276.132 454.438 276.152 456.021L276.174 457.692L276.167 457.692Z" fill="#D7FDFF"/>
<path d="M264.571 458.948C264.596 460.914 266.21 462.487 268.175 462.461L360.755 461.265C362.721 461.24 364.294 459.626 364.268 457.661C364.243 455.695 362.629 454.123 360.664 454.148L268.083 455.344C266.118 455.369 264.545 456.983 264.571 458.948Z" fill="#617F7B"/>
<path d="M336.883 461.606L420.067 460.536C423.555 460.493 426.566 458.082 427.372 454.688L442.744 390.071C443.279 387.791 442.735 385.392 441.27 383.565C439.804 381.738 437.58 380.687 435.239 380.714L361.819 381.656C358.333 381.705 355.324 384.113 354.514 387.504L336.883 461.606Z" fill="#7B9EA3"/>
<path d="M442.758 390.071L427.386 454.688C426.58 458.082 423.568 460.493 420.08 460.536L336.896 461.606L338.594 454.467L404.32 453.619C407.809 453.577 410.822 451.166 411.626 447.77L426.998 383.153C427.182 382.384 427.245 381.59 427.185 380.801L435.239 380.694C437.587 380.661 439.819 381.714 441.289 383.546C442.758 385.378 443.3 387.786 442.758 390.071Z" fill="#617F7B"/>
<ellipse rx="4.16388" ry="4.16389" transform="matrix(-1 0 0 1 394.997 423.168)" fill="#D7FDFF"/>
<path d="M400.651 429.331C398.887 432.166 395.573 433.64 392.285 433.052C388.998 432.464 386.401 429.932 385.729 426.66C385.057 423.389 386.446 420.039 389.236 418.202C387.227 421.457 387.746 425.67 390.485 428.34C393.223 431.01 397.448 431.422 400.651 429.331H400.651Z" fill="#D7FDFF"/>
<path d="M278.048 155.381C275.452 161.681 278.454 168.893 284.754 171.49L290.976 174.055C292.226 171.022 292.217 167.616 290.951 164.59C289.685 161.564 287.265 159.167 284.228 157.928L278.048 155.381L278.048 155.381Z" fill="#6EC3C8"/>
<path d="M293.89 143.348C287.59 145.945 284.588 153.157 287.185 159.457L289.749 165.68C296.049 163.083 299.052 155.871 296.455 149.571L293.89 143.348Z" fill="#62B7AD"/>
<path d="M290.944 174.027L297.124 171.48C300.156 170.236 302.569 167.836 303.83 164.81C305.09 161.784 305.095 158.381 303.842 155.352L297.62 157.916C291.33 160.525 288.343 167.735 290.944 174.027Z" fill="#6EC3C8"/>
<path d="M269.372 179.872C269.372 192.066 279.257 201.951 291.451 201.951C303.645 201.951 313.53 192.066 313.53 179.872C313.532 179.021 313.483 178.17 313.383 177.325C313.273 176.352 313.096 175.387 312.855 174.438H270.04C269.798 175.387 269.624 176.352 269.519 177.325C269.416 178.17 269.367 179.021 269.372 179.872Z" fill="#6EC3C8"/>
<rect width="50.6149" height="5.78133" rx="2.89066" transform="matrix(-1 0 0 1 316.244 168.657)" fill="#62B7AD"/>
<path d="M269.485 177.325H313.383C313.272 176.352 313.096 175.387 312.855 174.438H270.04C269.787 175.386 269.602 176.351 269.485 177.325Z" fill="#45AF82"/>
<path d="M172.292 165.513C170.261 170.441 172.609 176.082 177.537 178.113L182.4 180.118C184.431 175.19 182.083 169.548 177.155 167.517L172.292 165.513L172.292 165.513Z" fill="#6EC3C8"/>
<path d="M184.7 156.109C179.772 158.14 177.424 163.781 179.455 168.709L181.459 173.572C186.387 171.541 188.736 165.9 186.705 160.972L184.7 156.109V156.109Z" fill="#62B7AD"/>
<path d="M182.385 180.124L187.248 178.119C192.176 176.088 194.525 170.446 192.493 165.519L187.63 167.523C182.702 169.554 180.354 175.196 182.385 180.124L182.385 180.124Z" fill="#6EC3C8"/>
<path d="M165.515 184.677C165.392 190.93 168.658 196.76 174.053 199.922C179.448 203.085 186.131 203.085 191.526 199.922C196.921 196.76 200.186 190.93 200.063 184.677C200.066 184.007 200.028 183.338 199.949 182.672C199.866 181.91 199.728 181.155 199.535 180.413H166.043C165.692 181.803 165.514 183.231 165.515 184.664V184.677Z" fill="#6EC3C8"/>
<rect width="39.5936" height="4.51808" rx="2.25904" transform="matrix(-1 0 0 1 202.188 175.908)" fill="#62B7AD"/>
<path d="M165.629 182.686H199.976C199.893 181.924 199.754 181.169 199.562 180.427H166.07C165.875 181.169 165.728 181.924 165.629 182.686Z" fill="#45AF82"/>
<path d="M246.527 120.722H236.068C232.823 120.722 230.193 123.352 230.193 126.597V201.981H252.402V126.597C252.402 123.352 249.772 120.722 246.527 120.722Z" fill="#6EC3C8"/>
<ellipse rx="7.16481" ry="7.16483" transform="matrix(-1 0 0 1 241.294 161.338)" fill="#45AF82"/>
<path d="M241.294 166.511C241.555 166.546 241.819 166.562 242.083 166.558C244.973 166.558 247.316 164.215 247.316 161.325C247.316 158.434 244.973 156.091 242.083 156.091C241.812 156.09 241.541 156.112 241.274 156.158C243.819 156.558 245.695 158.752 245.695 161.328C245.695 163.904 243.819 166.098 241.274 166.498L241.294 166.511Z" fill="#6EC3C8"/>
<path d="M225.802 141.381H218.022C215.604 141.381 213.644 143.341 213.644 145.759V201.981H230.179V145.759C230.179 143.341 228.219 141.381 225.802 141.381V141.381Z" fill="#62B7AD"/>
<ellipse rx="5.34686" ry="5.34689" transform="matrix(-1 0 0 1 221.898 171.664)" fill="#6EC3C8"/>
<path d="M221.898 175.521C222.099 175.556 222.303 175.574 222.506 175.574C224.662 175.574 226.41 173.827 226.41 171.671C226.41 169.515 224.662 167.768 222.506 167.768C222.303 167.766 222.099 167.782 221.898 167.814C223.789 168.12 225.178 169.753 225.178 171.668C225.178 173.583 223.789 175.215 221.898 175.521Z" fill="#E9FFFC"/>
<path d="M468.53 624.418H476.55V169.559C476.241 143.414 454.959 122.383 428.812 122.383C402.666 122.383 381.384 143.414 381.075 169.559V221.865H389.122V169.559C389.404 147.825 407.103 130.354 428.839 130.354C450.575 130.354 468.275 147.825 468.556 169.559L468.53 624.418Z" fill="#34829B"/>
<ellipse rx="24.6358" ry="24.6357" transform="matrix(-1 0 0 1 384.196 254.514)" fill="#BBF3FF"/>
<path d="M359.56 254.514C359.562 261.898 362.875 268.892 368.587 273.571C374.3 278.25 381.809 280.121 389.048 278.669C377.54 276.36 369.258 266.252 369.258 254.514C369.258 242.776 377.54 232.668 389.048 230.36C381.809 228.908 374.3 230.779 368.587 235.458C362.875 240.137 359.562 247.13 359.56 254.514Z" fill="#D4FCF5"/>
<path d="M332.726 254.514H437.444C437.444 218.423 413.992 189.215 385.085 189.215C356.178 189.215 332.726 218.449 332.726 254.514Z" fill="#54A8BA"/>
<path d="M332.726 254.514H437.444C437.444 218.423 413.992 189.215 385.085 189.215C356.178 189.215 332.726 218.449 332.726 254.514Z" fill="#54A8BA"/>
<path d="M332.732 254.514H350.357C350.357 222.199 369.178 195.364 393.901 190.144C391.012 189.526 388.066 189.215 385.112 189.215C356.165 189.215 332.732 218.449 332.732 254.514Z" fill="#34829B"/>
<rect width="105.574" height="12.2711" rx="6.13553" transform="matrix(-1 0 0 1 525.327 618.276)" fill="#54A8BA"/>
<path d="M419.753 624.418C419.753 627.807 422.5 630.554 425.888 630.554H443.6C441.358 630.628 439.255 629.474 438.112 627.544C436.969 625.614 436.969 623.215 438.112 621.285C439.255 619.355 441.358 618.202 443.6 618.276H425.882C422.495 618.283 419.753 621.031 419.753 624.418Z" fill="#34829B"/>
<path d="M200.738 457.027V631.536H258.123V514.379C258.122 499.163 252.074 484.572 241.312 473.815C230.549 463.059 215.954 457.02 200.738 457.027V457.027Z" fill="#BBF3FF"/>
<path d="M200.738 457.027H56.1049V622.333C56.1049 627.419 60.2284 631.543 65.3149 631.543H200.738V457.027L200.738 457.027Z" fill="#34829B"/>
<rect width="13.7214" height="102.339" rx="6.8607" transform="matrix(-1 0 0 1 237.879 504.788)" fill="#D4FCF5"/>
</svg>
