<svg width="572" height="572" viewBox="0 0 572 572" fill="none" xmlns="http://www.w3.org/2000/svg">
<path d="M21.3372 376.357V382.192C21.3357 401.877 29.1554 420.757 43.0755 434.676C56.9957 448.595 75.8757 456.413 95.561 456.41H125.68C134.136 456.413 140.989 463.269 140.989 471.725V528.851H396.991V471.725C396.988 465.422 400.852 459.763 406.722 457.47C408.507 456.764 410.409 456.405 412.328 456.41H462.969C463.765 456.41 464.561 456.399 465.357 456.377C482.7 455.856 499.357 449.487 512.623 438.304C514.316 436.88 515.944 435.386 517.506 433.82C539.57 411.761 546.172 378.583 534.234 349.757C522.296 320.932 494.168 302.138 462.969 302.139H403.521C396.281 302.26 389.538 298.466 385.882 292.215C382.227 285.964 382.227 278.227 385.882 271.976C389.538 265.725 396.281 261.932 403.521 262.053H503.794C529.679 262.053 550.663 241.069 550.663 215.184C550.663 189.3 529.679 168.316 503.794 168.316C482.342 168.316 464.951 150.927 464.948 129.475V89.8993C464.949 85.8382 463.337 81.9429 460.466 79.0707C457.595 76.1985 453.7 74.5848 449.639 74.5848H92.7918C75.9262 74.4004 60.2622 83.2924 51.7757 97.8684C43.2892 112.445 43.2892 130.456 51.7757 145.032C60.2622 159.609 75.9262 168.501 92.7918 168.316H130.91C145.954 168.316 158.15 180.51 158.153 195.554C158.15 210.598 145.954 222.791 130.91 222.791C130.411 222.791 129.918 222.791 129.424 222.825C110.501 223.619 95.5724 239.2 95.589 258.14V282.244C95.5905 293.122 88.453 302.712 78.0323 305.833C63.7043 310.121 43.9054 319.163 31.8926 337.785C28.7151 342.728 26.2417 348.09 24.5436 353.716C22.3549 361.061 21.2742 368.692 21.3372 376.357Z" fill="#F3FEFB"/>
<rect x="40.6485" y="57.9194" width="479.789" height="274.501" rx="17.7" fill="#D2F5FA"/>
<rect x="262.675" y="105.304" width="227.963" height="200.994" rx="28.4" fill="#F3FEFB"/>
<path d="M320.828 182.515L361.435 174.017C362.018 176.812 362.313 179.66 362.315 182.515C362.315 205.274 343.586 223.997 320.833 223.997C298.08 223.997 279.352 205.268 279.352 182.515C279.352 159.762 298.08 141.034 320.833 141.034L320.828 182.515Z" fill="#BCEFF6"/>
<path d="M320.828 182.515L312.346 141.936C315.143 141.352 317.993 141.057 320.85 141.056C343.609 141.056 362.331 159.784 362.331 182.538C362.331 205.291 343.603 224.019 320.85 224.019C298.097 224.019 279.369 205.291 279.369 182.538L320.828 182.515Z" fill="#D2F5FA"/>
<rect x="373.89" y="159.818" width="23.482" height="13.3133" rx="6.65665" fill="#D2F5FA"/>
<rect x="403.079" y="159.818" width="73.3885" height="13.3133" rx="6.65665" fill="#D2F5FA"/>
<rect x="404.082" y="178.39" width="42.5746" height="13.3133" rx="6.65666" fill="#D2F5FA"/>
<rect x="403.079" y="196.047" width="73.3885" height="13.3133" rx="6.65664" fill="#D2F5FA"/>
<rect x="279.341" y="246.223" width="197.127" height="13.3133" rx="6.65665" fill="#D2F5FA"/>
<rect x="279.341" y="265.13" width="197.127" height="21.1667" rx="10.5834" fill="#D2F5FA"/>
<rect x="373.89" y="196.047" width="23.482" height="13.3133" rx="6.65664" fill="#D2F5FA"/>
<rect x="75.3247" y="101.979" width="138.896" height="53.0121" rx="11.38" fill="#BCEFF6"/>
<rect x="80.8631" y="109.177" width="47.8382" height="38.6226" rx="5.7" fill="#F3FEFB"/>
<rect x="89.35" y="130.361" width="4.59097" height="15.2304" rx="2.29549" fill="#D2F5FA"/>
<rect x="97.1306" y="124.508" width="4.59099" height="21.0826" rx="2.29549" fill="#D2F5FA"/>
<rect x="104.984" y="117.989" width="4.59099" height="27.602" rx="2.29549" fill="#D2F5FA"/>
<rect x="115.029" y="113.028" width="4.59099" height="32.5629" rx="2.29549" fill="#D2F5FA"/>
<rect x="136.801" y="115.792" width="70.4568" height="5.18517" rx="2.59259" fill="#F3FEFB"/>
<rect x="136.801" y="126.874" width="47.3561" height="5.18517" rx="2.59259" fill="#F3FEFB"/>
<path d="M50.5648 57.9194H510.515C515.995 57.9194 520.437 62.3616 520.437 67.8413V81.3957H40.6485V67.8413C40.6485 62.3638 45.0873 57.9225 50.5648 57.9194V57.9194Z" fill="#BCEFF6"/>
<ellipse cx="104.154" cy="69.6575" rx="5.66167" ry="5.66166" fill="white"/>
<ellipse cx="83.01" cy="69.6575" rx="5.66164" ry="5.66166" fill="white"/>
<ellipse cx="125.293" cy="69.6575" rx="5.66165" ry="5.66166" fill="white"/>
<rect x="75.3247" y="204.87" width="58.5673" height="101.613" rx="27.69" fill="#BCEFF6"/>
<rect x="144.077" y="248.296" width="58.5673" height="58.1805" rx="20.95" fill="#BCEFF6"/>
<rect x="213.099" y="269.996" width="39.0094" height="36.4869" rx="13.54" fill="#BCEFF6"/>
<rect x="82.9428" y="538.723" width="41.5151" height="9.87146" rx="4.93573" transform="rotate(-180 82.9428 538.723)" fill="#D2F5FA"/>
<rect x="540.982" y="538.723" width="454.02" height="9.87146" rx="4.93573" transform="rotate(-180 540.982 538.723)" fill="#D2F5FA"/>
<path d="M148.143 148.986C149.058 151.733 147.573 154.703 144.825 155.618C142.077 156.533 139.108 155.047 138.192 152.3L133.035 136.812C132.119 134.065 133.605 131.095 136.353 130.18C139.101 129.265 142.07 130.751 142.985 133.498L148.143 148.986Z" fill="#F9A0B4"/>
<ellipse cx="139.229" cy="153.147" rx="10.3311" ry="10.3311" fill="#F9A0B4"/>
<path d="M308.518 528.84H264.2C264.2 516.602 274.121 506.681 286.359 506.681C298.597 506.681 308.518 516.602 308.518 528.84Z" fill="#33557A"/>
<path d="M244.984 528.84H200.666C200.666 516.602 210.587 506.681 222.825 506.681C235.063 506.681 244.984 516.602 244.984 528.84Z" fill="#33557A"/>
<path d="M238.605 318.927V528.834H207.04V334.32C207.04 325.811 211.569 318.905 217.13 318.905L238.605 318.927Z" fill="#FFB2BF"/>
<path d="M207.04 479.163H238.605V528.84H207.04V479.163Z" fill="#BCE6E6"/>
<path d="M207.04 479.163H214.932V528.84H207.04V479.163Z" fill="#A7C6D3"/>
<path d="M222.825 479.163H230.718V528.84H222.825V479.163Z" fill="#A7C6D3"/>
<path d="M207.04 472.274H238.605V479.158H207.04V472.274Z" fill="#F9A0B4"/>
<path d="M303.523 520.819H271.425L262.793 474.993L243.958 374.882L238.593 346.327L237.181 338.799C236.295 334.096 236.912 329.628 238.593 326.433C239.905 323.95 241.862 322.235 244.261 321.786L265.349 317.817L276.078 374.882L293.803 469.169L303.523 520.819Z" fill="#FFB2BF"/>
<path d="M303.523 520.819H271.414L262.793 474.993L293.814 469.169L303.523 520.819Z" fill="#BCE6E6"/>
<path d="M262.789 475L270.544 473.531L279.793 522.339L272.038 523.808L262.789 475Z" fill="#A7C6D3"/>
<path d="M278.295 472.064L286.049 470.595L295.298 519.403L287.544 520.872L278.295 472.064Z" fill="#A7C6D3"/>
<path d="M292.744 463.708L261.789 469.729L262.793 474.993L293.814 469.168L292.744 463.708Z" fill="#F9A0B4"/>
<path d="M276.089 374.882H243.958L238.593 346.327V374.882H207.04V334.343C207.04 325.833 211.569 318.927 217.13 318.927H238.593V326.433C239.905 323.95 241.862 322.235 244.261 321.786L265.349 317.817L276.089 374.882Z" fill="#F9A0B4"/>
<path d="M200.335 519.972L244.552 515.078C246.502 514.862 248.452 515.486 249.914 516.794C251.375 518.103 252.21 519.972 252.209 521.934C252.209 525.745 249.12 528.835 245.309 528.835H200.823C198.368 528.835 196.378 526.844 196.378 524.389C196.378 522.124 198.083 520.221 200.335 519.972Z" fill="#55A1AB"/>
<path d="M252.204 521.94C252.205 523.769 251.479 525.523 250.186 526.817C248.893 528.11 247.138 528.836 245.309 528.834H234.294C237.46 528.841 240.224 526.691 240.996 523.621C241.767 520.55 240.349 517.349 237.556 515.857L244.552 515.078C246.502 514.863 248.451 515.489 249.912 516.798C251.373 518.108 252.206 519.978 252.204 521.94Z" fill="#33557A"/>
<path d="M263.869 519.972L308.086 515.078C310.036 514.862 311.986 515.486 313.448 516.794C314.909 518.103 315.744 519.972 315.743 521.934C315.743 525.745 312.654 528.835 308.843 528.835H264.357C261.902 528.835 259.912 526.844 259.912 524.389C259.912 522.124 261.617 520.221 263.869 519.972Z" fill="#55A1AB"/>
<path d="M315.743 521.94C315.74 525.748 312.652 528.834 308.843 528.834H297.833C300.998 528.839 303.76 526.688 304.53 523.618C305.3 520.548 303.882 517.348 301.09 515.857L308.086 515.078C310.037 514.863 311.986 515.488 313.448 516.798C314.909 518.107 315.744 519.977 315.743 521.94Z" fill="#33557A"/>
<path d="M218.497 254.794C212.824 259.845 204.222 259.691 198.732 254.441C198.446 254.172 198.171 253.88 197.902 253.589L189.382 244.014L127.036 173.944C121.681 167.927 122.216 158.708 128.233 153.352C134.25 147.996 143.469 148.532 148.825 154.549L196.507 208.138L208.901 222.096L219.691 234.227C225.037 240.237 224.503 249.442 218.497 254.794Z" fill="#FFB2BF"/>
<path d="M219.691 234.205L208.901 222.096L196.507 208.167C196.507 208.307 196.473 208.436 196.456 208.57C196.456 208.57 199.489 219.557 189.382 244.037L197.902 253.611C198.166 253.908 198.463 254.172 198.732 254.463C204.375 259.945 213.351 259.959 219.011 254.494C224.67 249.029 224.972 240.059 219.691 234.227V234.205Z" fill="#F9A0B4"/>
<path d="M290.406 289.728C287.019 291.601 283.025 292.049 279.307 290.975C275.589 289.9 272.45 287.39 270.585 283.999L263.634 271.426L259.469 263.875L247.103 241.452C243.255 234.491 245.699 225.729 252.596 221.766L252.826 221.637C256.212 219.767 260.202 219.32 263.917 220.393C267.633 221.466 270.769 223.973 272.636 227.36L274.447 230.634L296.124 269.923C297.992 273.308 298.439 277.296 297.367 281.01C296.295 284.724 293.791 287.86 290.406 289.728Z" fill="#FFB2BF"/>
<path d="M332.116 262.272C340.17 262.234 346.729 268.732 346.767 276.786C346.805 284.84 340.307 291.399 332.253 291.437L283.637 291.667C275.583 291.704 269.023 285.206 268.985 277.152C268.947 269.099 275.445 262.539 283.499 262.501L332.116 262.272Z" fill="#FFB2BF"/>
<ellipse cx="338.035" cy="273.438" rx="19.5691" ry="15.4322" transform="rotate(-50.27 338.035 273.438)" fill="#FFB2BF"/>
<path opacity="0.38" d="M350.532 258.354C344.321 253.191 334.18 254.99 327.257 262.311L292.02 262.479L272.636 227.349C269.613 221.844 263.404 218.895 257.227 220.03C251.05 221.165 246.295 226.129 245.427 232.349C247.786 227.421 252.704 224.226 258.166 224.074C263.628 223.921 268.716 226.837 271.347 231.626L288.399 262.513L290.731 266.751H294.358L324 266.611H325.968C327.56 264.912 329.392 263.456 331.405 262.289C337.532 258.796 344.539 258.679 349.265 262.608C353.295 265.972 354.741 271.471 353.637 277.183C356.563 270.109 355.571 262.547 350.532 258.354Z" fill="#F9E0E5"/>
<path d="M319.151 257.56C320.358 257.554 321.341 258.528 321.347 259.735L321.509 294.081C321.515 295.288 320.54 296.271 319.333 296.277C318.126 296.283 317.142 295.309 317.137 294.101L316.975 259.756C316.969 258.549 317.943 257.565 319.151 257.56Z" fill="#55A1AB"/>
<path d="M313.744 260.128C314.951 260.122 315.934 261.096 315.94 262.304L316.08 291.918C316.085 293.125 315.111 294.109 313.904 294.114C312.696 294.12 311.713 293.146 311.707 291.938L311.568 262.324C311.562 261.117 312.536 260.134 313.744 260.128Z" fill="#55A1AB"/>
<path d="M213.94 260.001V293.59C213.94 306.156 224.127 316.343 236.693 316.343C249.259 316.343 259.446 306.156 259.446 293.59V260.001L213.94 260.001Z" fill="#FDA541"/>
<path d="M228.105 193.093V227.848C228.108 232.286 231.706 235.883 236.144 235.886H237.231C241.672 235.886 245.272 232.288 245.275 227.848V193.093C245.277 190.959 244.43 188.911 242.921 187.401C241.413 185.892 239.366 185.043 237.231 185.043H236.138C231.698 185.05 228.102 188.653 228.105 193.093H228.105Z" fill="#FFB2BF"/>
<path d="M270.467 254.216V255.466C270.464 264.635 263.032 272.067 253.863 272.07H218.228C209.06 272.067 201.63 264.634 201.63 255.466V254.216C201.634 245.09 205.264 236.338 211.72 229.888C212.833 228.778 214.018 227.745 215.269 226.794C225.681 218.895 239.669 217.577 251.374 223.391C263.079 229.205 270.48 241.147 270.478 254.216H270.467Z" fill="#FDA541"/>
<path d="M264.822 235.331C260.28 228.448 253.433 223.41 245.511 221.121C248.067 222.29 250.472 223.764 252.675 225.51C260.925 232.028 265.736 241.965 265.73 252.479V253.723C265.723 260.739 261.314 266.996 254.71 269.363V291.853C254.704 298.844 251.488 305.445 245.985 309.758C240.482 314.07 233.303 315.616 226.513 313.95C233.569 317.478 241.949 317.101 248.659 312.954C255.37 308.806 259.453 301.479 259.452 293.59V271.106C266.056 268.74 270.464 262.482 270.467 255.467V254.217C270.48 247.504 268.517 240.936 264.822 235.331Z" fill="#FFBA76"/>
<path d="M257.411 227.253C251.608 230.818 244.98 232.817 238.173 233.055C237.68 233.083 237.186 233.089 236.688 233.089C235.869 233.089 235.051 233.06 234.249 233.01C227.487 232.608 220.943 230.467 215.252 226.793C227.765 217.312 245.108 217.501 257.411 227.253Z" fill="#FFB2BF"/>
<ellipse cx="260.814" cy="176.534" rx="8.50932" ry="8.50929" fill="#F9A0B4"/>
<ellipse cx="215.257" cy="176.534" rx="8.50932" ry="8.50929" fill="#F9A0B4"/>
<path d="M276.835 363.66H200.599C198.115 363.662 195.754 362.583 194.129 360.705C192.504 358.827 191.776 356.336 192.134 353.878C195.542 331.019 197.034 290.916 238.599 290.916C279.677 290.916 282.648 331.983 285.316 354.086C285.61 356.513 284.85 358.95 283.228 360.78C281.607 362.61 279.28 363.658 276.835 363.66Z" fill="#55A1AB"/>
<path d="M276.84 363.654H262.412C264.857 363.656 267.186 362.61 268.809 360.78C270.431 358.951 271.192 356.513 270.899 354.086C268.387 333.345 265.624 295.883 231.312 291.37C233.729 291.064 236.163 290.914 238.599 290.922C279.683 290.922 282.648 331.988 285.316 354.086C285.61 356.511 284.85 358.947 283.23 360.776C281.61 362.605 279.284 363.653 276.84 363.654Z" fill="#6FB2C1"/>
<rect x="209.966" y="140.266" width="54.7779" height="127.449" rx="27.389" fill="#652138"/>
<rect x="205.375" y="182.515" width="63.9487" height="85.1995" rx="31.9743" fill="#652138"/>
<path d="M264.744 196.31V167.655C264.747 160.389 261.862 153.419 256.725 148.28C251.589 143.142 244.621 140.254 237.355 140.254C236.345 140.254 235.336 140.31 234.333 140.423C248.204 141.965 258.698 153.687 258.701 167.643V196.31C261.7 201.043 263.289 206.532 263.281 212.135V238.151C263.27 253.762 251.131 266.679 235.55 267.659C235.146 267.659 234.742 267.591 234.344 267.546C233.946 267.591 233.543 267.63 233.134 267.659C232.534 267.698 231.934 267.715 231.323 267.715H239.731C247.581 267.716 255.109 264.599 260.66 259.049C266.21 253.5 269.329 245.972 269.329 238.123V212.107C269.332 206.513 267.742 201.033 264.744 196.31Z" fill="#7A314D"/>
<rect x="235.746" y="206.804" width="19.0758" height="36.6214" rx="9.53792" fill="#7A314D"/>
<ellipse cx="238.605" cy="150.989" rx="14.838" ry="14.838" fill="#FDA541"/>
<ellipse cx="238.605" cy="142.934" rx="18.8068" ry="18.8068" fill="#7A314D"/>
<path d="M257.411 142.928C257.408 153.317 248.988 161.738 238.599 161.741C237.84 161.743 237.081 161.695 236.329 161.595C245.776 160.459 252.885 152.444 252.885 142.928C252.885 133.413 245.776 125.398 236.329 124.262C237.082 124.167 237.84 124.12 238.599 124.122C248.987 124.122 257.408 132.541 257.411 142.928Z" fill="#8E4463"/>
<ellipse cx="133.89" cy="156.333" rx="16.4917" ry="19.5691" transform="rotate(-36.25 133.89 156.333)" fill="#FFB2BF"/>
<path d="M147.16 150.501C148.943 152.784 148.537 156.079 146.255 157.862C143.972 159.645 140.677 159.239 138.894 156.957L116.146 127.83C114.363 125.547 114.768 122.252 117.051 120.469C119.333 118.686 122.629 119.092 124.412 121.374L147.16 150.501Z" fill="#FFB2BF"/>
<ellipse opacity="0.38" rx="8.43644" ry="5.78499" transform="matrix(0.639172 -0.769064 0.769066 0.639169 338.033 276.87)" fill="#F9E0E5"/>
<path d="M429.173 442.37C433.977 454.025 428.429 467.367 416.777 472.18L405.262 476.926C400.455 465.265 406.012 451.916 417.673 447.11L429.173 442.37H429.173Z" fill="#96C9CC"/>
<path d="M399.796 420.106C411.456 424.912 417.013 438.262 412.207 449.923L407.461 461.438C395.8 456.632 390.243 443.283 395.049 431.622L399.796 420.106Z" fill="#79BFB7"/>
<path d="M405.291 476.925L393.776 472.178C382.115 467.372 376.558 454.022 381.364 442.361L392.896 447.114C404.547 451.927 410.095 465.27 405.291 476.925Z" fill="#96C9CC"/>
<path d="M445.199 487.723C444.937 510.116 426.709 528.132 404.315 528.132C381.92 528.132 363.692 510.116 363.43 487.723C363.428 486.148 363.52 484.573 363.705 483.009C363.909 481.206 364.235 479.42 364.68 477.661H443.949C444.397 479.419 444.723 481.206 444.924 483.009C445.112 484.573 445.204 486.148 445.199 487.723Z" fill="#96C9CC"/>
<rect x="358.408" y="466.96" width="93.7144" height="10.701" rx="5.35049" fill="#79BFB7"/>
<path d="M444.924 483.009H363.705C363.909 481.206 364.235 479.42 364.68 477.661H443.949C444.397 479.419 444.723 481.206 444.924 483.009Z" fill="#79BFB7"/>
</svg>
