<svg width="638" height="638" viewBox="0 0 638 638" fill="none" xmlns="http://www.w3.org/2000/svg">
<path d="M608.799 419.782V426.291C608.825 443.73 603.319 460.728 593.074 474.841C589.534 479.715 585.477 484.193 580.976 488.196C565.837 501.66 546.277 509.09 526.017 509.073H492.479C483.028 509.073 475.366 516.735 475.366 526.186V589.841H189.844V526.154C189.837 516.721 182.19 509.076 172.756 509.073H116.278C115.384 509.073 114.497 509.073 113.609 509.035C101.471 508.675 89.5489 505.738 78.6327 500.42C77.7199 499.978 76.8133 499.515 75.9129 499.032C70.5661 496.187 65.5361 492.783 60.9072 488.878C59.019 487.29 57.2037 485.622 55.4613 483.876C52.638 481.051 50.0141 478.035 47.6083 474.847C39.2575 463.81 33.7092 450.911 31.4396 437.258C30.0334 428.78 29.8943 420.141 31.027 411.623C31.7898 405.799 33.1582 400.069 35.1098 394.529C47.2353 360.075 79.7783 337.02 116.303 337.007H182.579C194.162 336.935 203.772 328.029 204.723 316.485C205.674 304.941 197.651 294.582 186.237 292.615C185.028 292.413 183.804 292.313 182.579 292.315H133.26C114.579 292.296 97.3271 282.312 88.0031 266.124C78.679 249.937 78.6993 230.004 88.0562 213.835C97.4132 197.667 114.685 187.718 133.366 187.737C144.852 187.727 155.863 183.153 163.976 175.022C172.088 166.891 176.637 155.869 176.62 144.383C176.62 110.6 203.998 83.2079 237.781 83.1907H510.386C538.557 83.1709 561.67 105.493 562.631 133.648C563.656 163.384 539.441 187.737 509.679 187.737H486.671C481.515 187.734 476.443 189.045 471.934 191.545C471.434 191.828 470.94 192.122 470.452 192.426C465.894 195.31 462.183 199.351 459.698 204.137C457.971 207.449 456.877 211.053 456.472 214.766C456.351 215.871 456.291 216.981 456.29 218.092C456.287 226.151 459.487 233.88 465.185 239.578C470.883 245.276 478.612 248.476 486.671 248.473C487.227 248.473 487.784 248.473 488.334 248.51C489.265 248.548 490.209 248.617 491.11 248.723C496.327 249.303 501.373 250.93 505.947 253.506C513.161 257.555 518.919 263.769 522.409 271.269L522.472 271.4C523.534 273.69 524.371 276.077 524.973 278.528C525.094 279.008 525.2 279.495 525.292 279.991C525.826 282.585 526.094 285.227 526.092 287.876V314.761C526.076 326.885 534.016 337.585 545.624 341.083C561.612 345.866 583.695 355.952 597.094 376.722C600.636 382.229 603.397 388.201 605.297 394.466C606.992 400.052 608.082 405.804 608.549 411.623C608.757 414.249 608.861 416.969 608.861 419.782H608.799Z" fill="#F3FEF9"/>
<path d="M253.7 357.027C253.694 353.28 253.995 349.539 254.6 345.842C240.063 336.194 232.939 318.613 236.659 301.567C240.379 284.522 254.181 271.507 271.415 268.793C288.65 266.08 305.783 274.223 314.561 289.301C316.962 289.048 319.374 288.92 321.789 288.92C349.337 288.912 374.177 305.501 384.725 330.95C395.273 356.4 389.45 385.697 369.973 405.18C350.496 424.662 321.2 430.493 295.748 419.952C270.296 409.411 253.7 384.576 253.7 357.027Z" fill="#D2F8FA"/>
<path d="M526.017 287.907V306.764C517.574 324.871 497.63 334.621 478.155 330.16C477.336 329.973 476.517 329.76 475.716 329.535C457.122 324.062 444.623 306.656 445.378 287.288C446.132 267.92 459.948 251.539 478.911 247.529C481.424 248.186 484.011 248.518 486.608 248.517C487.165 248.517 487.721 248.517 488.271 248.554C509.379 249.439 526.029 266.818 526.011 287.944L526.017 287.907Z" fill="#D2F8FA"/>
<path d="M365.68 259.196C353.77 277.404 329.991 283.611 310.701 273.546C291.411 263.481 282.899 240.427 291.021 220.242C299.142 200.057 321.249 189.322 342.134 195.421C350 176.287 368.797 163.936 389.482 164.312C410.167 164.688 428.504 177.713 435.669 197.121C442.835 216.528 437.362 238.344 421.885 252.072C406.407 265.8 384.094 268.628 365.68 259.196Z" fill="#D2F8FA"/>
<path d="M275.74 463.043C275.745 482.148 264.901 499.599 247.769 508.055C230.638 516.512 210.19 514.507 195.027 502.883C192.95 507.646 189.76 511.84 185.724 515.113C182.479 511.283 177.714 509.074 172.694 509.073H116.216C115.322 509.073 114.434 509.073 113.546 509.035C101.409 508.675 89.4864 505.738 78.5702 500.42C77.6574 499.978 76.7508 499.515 75.8504 499.031C70.5036 496.187 65.4735 492.783 60.8447 488.878C58.9564 487.289 57.1412 485.622 55.3988 483.876C52.5755 481.051 49.9515 478.035 47.5458 474.847C39.195 463.81 33.6467 450.911 31.3771 437.258C48.9241 445.754 62.9677 460.092 71.0986 477.811C90.9691 465.39 116.791 468.374 133.304 485.001C134.768 475.594 140.297 467.307 148.422 462.342C156.546 457.378 166.443 456.239 175.482 459.229C177.469 433.07 199.268 412.855 225.502 412.842C226.708 412.842 227.903 412.886 229.09 412.967C255.37 414.834 275.737 436.697 275.74 463.043Z" fill="#ADE0C1"/>
<path d="M608.799 419.782V426.291C608.825 443.73 603.319 460.728 593.074 474.841C589.534 479.715 585.477 484.193 580.976 488.196C565.837 501.66 546.277 509.09 526.017 509.073H492.448C487.918 509.073 483.573 510.872 480.369 514.076C477.166 517.279 475.366 521.624 475.366 526.154V589.873H189.782V526.154C189.775 516.721 182.127 509.076 172.694 509.073H154.9C166.288 504.655 178.766 503.879 190.613 506.853C187.59 483.165 203.897 461.348 227.471 457.541C221.598 434.981 226.208 410.976 240.019 392.197C253.829 373.417 275.37 361.864 298.655 360.747C298.332 358.718 298.16 356.668 298.142 354.614C298.149 350.971 298.645 347.345 299.618 343.834C271.049 332.983 253.58 304.028 257.301 273.695C259.82 253.203 271.734 235.051 289.532 224.589C306.277 214.742 326.494 212.725 344.854 219.068C364.05 204.273 389.825 201.225 411.943 211.134C434.061 221.043 448.943 242.306 450.682 266.48C451.063 266.442 451.451 266.411 451.832 266.392C452.457 266.348 453.12 266.33 453.777 266.33C466.151 266.332 477.29 273.834 481.944 285.299C493.987 277.211 507.943 272.427 522.416 271.425C524.792 276.592 526.021 282.213 526.017 287.9V314.786C526.001 326.91 533.94 337.61 545.549 341.108C561.537 345.891 583.62 355.977 597.019 376.747C600.561 382.254 603.322 388.226 605.222 394.491C606.919 400.069 608.014 405.812 608.486 411.623C608.695 414.249 608.799 416.969 608.799 419.782Z" fill="#EAFDFC"/>
<path d="M276.577 303.725C282.75 319.082 295.756 330.665 311.722 335.025C289.149 321.268 280.159 292.983 290.649 268.718C301.139 244.453 327.902 231.624 353.388 238.644C333.876 226.714 308.913 228.642 291.464 243.427C274.015 258.211 268.014 282.519 276.577 303.725Z" fill="#F0FCFB"/>
<path d="M526.017 287.907V293.534C500.82 295.074 480.05 313.86 475.998 338.776C475.635 335.708 475.535 332.614 475.698 329.529C477.142 302.677 498.095 280.964 524.879 278.566C525.63 281.623 526.012 284.759 526.017 287.907Z" fill="#F0FCFB"/>
<rect x="540.091" y="589.873" width="46.3053" height="11.0105" rx="5.50525" fill="#D2F8FA"/>
<rect x="29.2013" y="589.873" width="506.407" height="11.0105" rx="5.50525" fill="#D2F8FA"/>
<path d="M593.074 474.841C589.534 479.715 585.477 484.193 580.976 488.196C565.837 501.66 546.277 509.09 526.017 509.073H492.448C483.014 509.073 475.366 516.721 475.366 526.155V589.873H189.782V526.155C189.775 516.721 182.127 509.076 172.694 509.073H116.216C115.322 509.073 114.434 509.073 113.546 509.035C101.409 508.675 89.4864 505.738 78.5702 500.42C77.6574 499.978 76.7508 499.515 75.8504 499.032C70.5036 496.187 65.4736 492.783 60.8447 488.878C58.9564 487.29 57.1412 485.622 55.3988 483.876C52.5755 481.052 49.9515 478.035 47.5458 474.847H593.074V474.841Z" fill="#D2F8FA"/>
<path d="M608.799 419.782V426.291C608.825 443.73 603.319 460.729 593.074 474.841H47.5208C33.903 456.765 27.9466 434.056 30.9394 411.623H608.486C608.695 414.249 608.799 416.969 608.799 419.782Z" fill="#C4EFF2"/>
<path d="M593.074 474.841C589.534 479.715 585.477 484.193 580.976 488.196C576.266 492.384 571.093 496.02 565.557 499.032H75.8504C70.5036 496.187 65.4736 492.783 60.8447 488.878C58.9564 487.29 57.1412 485.622 55.3988 483.876C52.5755 481.052 49.9515 478.035 47.5458 474.847H593.074V474.841Z" fill="#A6E8E8"/>
<path d="M189.782 550.858H226.796C229.092 550.858 230.954 552.719 230.954 555.016V568.646C230.954 570.942 229.092 572.804 226.796 572.804H189.782V550.858L189.782 550.858Z" fill="#A6E8E8"/>
<rect x="255.476" y="515.951" width="53.8582" height="21.9398" rx="6.65" fill="#A6E8E8"/>
<rect x="342.24" y="550.858" width="53.8582" height="21.9396" rx="6.65" fill="#A6E8E8"/>
<rect x="417.044" y="515.951" width="53.8582" height="21.9398" rx="6.65" fill="#A6E8E8"/>
<path d="M383.075 307.608C353.882 326.278 318.294 322.789 303.369 299.88C281.779 302.381 262.072 294.647 253.631 278.303C244.878 261.372 250.705 239.951 266.455 223.545C263.272 222.135 260.502 219.936 258.408 217.155C250.999 207.251 254.031 192.176 264.798 181.516C262.428 176.101 261.847 170.399 263.485 164.985C267.862 150.498 286.619 143.101 306.777 147.228H306.808C311.691 143.852 317.13 141.361 322.877 139.869C345.385 133.998 367.5 143.995 372.27 162.209C373.714 167.876 373.411 173.848 371.401 179.34L371.508 179.44C375.752 183.224 378.709 188.238 379.967 193.783C381.343 200.092 380.286 206.494 377.316 212.359C390.753 214.285 402.388 220.85 409.372 231.779C424.165 254.907 412.398 288.876 383.075 307.608Z" fill="#6C4A67"/>
<path d="M270.613 164.96C268.981 170.374 269.556 176.076 271.926 181.491C261.122 192.176 258.127 207.251 265.53 217.13C267.629 219.905 270.397 222.104 273.576 223.52C257.833 239.926 252.024 261.347 260.765 278.278C267.68 291.664 282.167 299.286 299.055 300.224C279.185 301.274 261.503 293.521 253.631 278.278C244.878 261.347 250.705 239.926 266.455 223.52C263.272 222.11 260.502 219.911 258.408 217.13C250.999 207.226 254.031 192.151 264.798 181.491C262.428 176.076 261.847 170.374 263.485 164.96C267.324 152.273 282.192 145.039 299.368 146.202C285.337 147.19 273.908 154.068 270.613 164.96Z" fill="#775674"/>
<path d="M219.712 324.99C219.718 333.147 224.305 340.609 231.58 344.297C238.855 347.986 247.586 347.275 254.169 342.459L268.837 331.736L268.893 331.692L271.532 329.767L312.472 299.836C318.782 295.236 322.123 287.594 321.217 279.839C320.31 272.083 315.296 265.418 308.096 262.397C307.539 262.159 306.97 261.94 306.408 261.772C299.782 259.583 292.506 260.736 286.881 264.867L228.59 307.477C223.004 311.562 219.705 318.069 219.712 324.99Z" fill="#EF948C"/>
<path d="M219.712 324.99C219.711 329.581 221.174 334.054 223.888 337.757C224.569 338.69 225.326 339.564 226.152 340.371C221.401 330.909 224.176 319.399 232.717 313.141L291.027 270.506C299.604 264.235 311.463 265.112 319.025 272.576C318.482 271.518 317.855 270.506 317.149 269.55C313.756 264.911 308.658 261.81 302.979 260.929C297.299 260.048 291.502 261.46 286.863 264.854L228.59 307.477C223.004 311.562 219.705 318.069 219.712 324.99Z" fill="#E87A74"/>
<path d="M230.228 343.501C221.921 339.24 218.643 329.052 222.904 320.746C227.165 312.44 237.353 309.161 245.66 313.422L295.793 339.143C304.099 343.405 307.378 353.593 303.117 361.899C298.855 370.205 288.667 373.484 280.361 369.222L230.228 343.501Z" fill="#EF948C"/>
<ellipse cx="297.825" cy="356.234" rx="22.6837" ry="17.8819" transform="rotate(-19.15 297.825 356.234)" fill="#EF948C"/>
<path d="M295.297 369.419C292.267 368.494 289.538 366.781 287.388 364.455L275.596 358.39L238.344 339.283C233.437 336.779 230.061 332.04 229.297 326.584C228.534 321.129 230.48 315.645 234.511 311.891C227.488 313.336 222.145 319.061 221.185 326.166C220.225 333.272 223.859 340.209 230.247 343.466L279.322 368.638C284.474 374.39 294.215 376.447 303.707 373.171C306.445 372.23 309.019 370.865 311.335 369.125C306.154 370.915 300.54 371.018 295.297 369.419Z" fill="#E87A74"/>
<path d="M371.376 179.334C371.615 176.229 371.336 173.106 370.551 170.093C365.799 151.886 343.666 141.888 321.157 147.759C305.764 151.792 294.159 162.183 289.895 174.188C291.046 159.032 304.157 144.721 322.858 139.831C345.366 133.96 367.481 143.958 372.252 162.171C373.709 167.848 373.403 173.834 371.376 179.334Z" fill="#2B2137"/>
<path d="M383.075 307.608C362.873 320.519 339.62 322.839 322.264 315.448C338.164 318.887 357.127 315.486 373.952 304.732C403.276 285.975 415.043 252.024 400.212 228.853C395.615 221.751 388.96 216.222 381.136 213.003C392.922 215.56 403.02 221.869 409.328 231.76C424.165 254.907 412.398 288.876 383.075 307.608Z" fill="#2B2137"/>
<path d="M344.985 235.218C321.907 240.257 300.036 229.878 296.135 212.034C295.392 208.619 295.341 205.09 295.985 201.655C296.035 201.899 296.079 202.143 296.135 202.386C300.036 220.231 321.907 230.61 344.985 225.564C363.573 221.506 377.285 208.683 379.861 194.496C383.187 212.084 367.769 230.216 344.985 235.218Z" fill="#2B2137"/>
<path d="M238.257 511.769L223.461 472.531L241.744 465.637L256.539 504.875L238.257 511.769Z" fill="#EF948C"/>
<path d="M247.345 508.35L232.549 469.112L241.746 465.644L256.542 504.882L247.345 508.35Z" fill="#E87A74"/>
<path d="M217.261 475.21L232.179 514.781C239.302 512.156 244.471 505.913 245.722 498.425C246.973 490.937 244.114 483.354 238.231 478.555C232.348 473.757 224.345 472.48 217.261 475.21Z" fill="white"/>
<path d="M229.634 516.857L213.628 474.397C212.956 472.617 213.018 470.643 213.803 468.909C214.588 467.175 216.03 465.825 217.811 465.156C219.703 464.44 221.81 464.558 223.611 465.48C225.412 466.402 226.739 468.042 227.265 469.995L239.094 513.806C239.749 516.277 238.436 518.844 236.049 519.758C233.477 520.715 230.615 519.42 229.634 516.857Z" fill="#2B2137"/>
<path d="M376.254 513.748L394.426 475.956L412.035 484.423L393.863 522.215L376.254 513.748Z" fill="#EF948C"/>
<path d="M376.258 513.747L394.43 475.954L401.829 479.511L383.657 517.304L376.258 513.747Z" fill="#E87A74"/>
<path d="M400.219 524.629L418.544 486.489C411.731 483.216 403.69 483.825 397.448 488.089C391.207 492.352 387.714 499.622 388.285 507.159C388.857 514.696 393.406 521.355 400.219 524.629Z" fill="white"/>
<path d="M421.808 486.927L402.157 527.83C400.436 531.399 396.151 532.901 392.578 531.188C390.755 530.31 389.388 528.704 388.811 526.765C388.235 524.825 388.504 522.733 389.552 521.002L413.061 482.188C414.407 480.016 417.172 479.207 419.476 480.312C421.928 481.511 422.966 484.455 421.808 486.927Z" fill="#2B2137"/>
<ellipse cx="322.833" cy="421.233" rx="58.5912" ry="58.5912" fill="#57879E"/>
<path d="M438.694 422.018C444.156 437.598 435.954 454.656 420.374 460.118L260.535 516.155C259.004 516.692 257.327 515.886 256.79 514.354L238.957 463.488C238.42 461.956 239.226 460.279 240.758 459.742L400.603 403.703C416.182 398.241 433.24 406.443 438.702 422.022L438.694 422.018Z" fill="#57879E"/>
<path d="M420.351 460.104L260.509 516.132C259.773 516.392 258.963 516.348 258.259 516.01C257.556 515.672 257.015 515.068 256.757 514.331L253.975 506.297L413.474 450.394C420.956 447.773 427.089 442.286 430.525 435.141C433.961 427.996 434.417 419.779 431.793 412.298C431.524 411.535 431.237 410.791 430.912 410.066C438.533 417.211 441.873 427.816 439.721 438.038C437.57 448.261 430.238 456.62 420.383 460.085L420.351 460.104Z" fill="#639FB7"/>
<path d="M308.19 218.63V256.539C308.348 263.896 314.357 269.778 321.717 269.778C329.076 269.778 335.086 263.896 335.244 256.539V218.63C335.086 211.273 329.076 205.391 321.717 205.391C314.357 205.391 308.348 211.273 308.19 218.63H308.19Z" fill="#EF948C"/>
<path d="M427.066 324.984C427.06 333.142 422.473 340.605 415.196 344.295C407.92 347.984 399.188 347.275 392.603 342.459L377.941 331.736L377.885 331.692L375.272 329.767L334.331 299.83C328.026 295.228 324.687 287.587 325.593 279.833C326.5 272.08 331.511 265.415 338.708 262.391C339.264 262.153 339.827 261.941 340.396 261.766C347.021 259.579 354.295 260.729 359.922 264.854L418.219 307.483C423.791 311.572 427.077 318.073 427.066 324.984Z" fill="#EF948C"/>
<path d="M427.066 324.984C427.07 329.578 425.607 334.053 422.89 337.757C422.211 338.695 421.451 339.571 420.62 340.377C425.379 330.91 422.594 319.39 414.036 313.142L355.727 270.5C347.153 264.245 335.31 265.124 327.753 272.576C328.296 271.518 328.923 270.506 329.629 269.55C336.696 259.89 350.253 257.786 359.916 264.848L418.213 307.477C423.789 311.565 427.078 318.07 427.066 324.984Z" fill="#E87A74"/>
<path d="M283.461 323.745V381.862C282.982 396.24 290.379 409.735 302.757 417.066C315.135 424.397 330.525 424.397 342.902 417.066C355.28 409.735 362.677 396.24 362.198 381.862V323.745L283.461 323.745Z" fill="#FBE7EB"/>
<path d="M283.461 310.072V368.219L362.198 351.162V310.072H283.461Z" fill="#FCB651"/>
<path d="M378.323 313.029V315.067C378.324 322.313 375.447 329.262 370.324 334.385C365.2 339.508 358.251 342.386 351.006 342.384H292.402C277.318 342.381 265.092 330.151 265.092 315.067V313.029C265.106 298.804 270.461 285.103 280.098 274.639C280.623 274.083 281.142 273.539 281.679 273.007C282.574 272.107 283.511 271.225 284.48 270.381C286.506 268.601 288.663 266.977 290.933 265.523C291.346 265.248 291.758 264.992 292.183 264.742C295.11 262.942 298.197 261.418 301.406 260.19C314.859 255.018 329.778 255.172 343.122 260.621C345.943 261.77 348.662 263.154 351.25 264.76C352.181 265.323 353.088 265.923 353.988 266.549C357.596 269.057 360.904 271.971 363.848 275.233C365.748 277.335 367.483 279.58 369.038 281.948C375.122 291.17 378.352 301.981 378.323 313.029Z" fill="white"/>
<path d="M378.323 313.029V315.073C378.323 330.158 366.097 342.387 351.012 342.39H332.787C357.403 325.328 365.988 292.915 353.044 265.905L353.995 266.53C355.714 267.72 357.363 269.008 358.934 270.388C371.273 281.11 378.346 296.663 378.317 313.01L378.323 313.029Z" fill="#FFEFED"/>
<path d="M308.19 218.63V247.885C316.692 251.996 326.551 252.253 335.256 248.592V218.63C335.098 211.273 329.088 205.391 321.729 205.391C314.37 205.391 308.36 211.273 308.202 218.63H308.19Z" fill="#E87A74"/>
<ellipse cx="287.876" cy="203.381" rx="13.8116" ry="13.8115" fill="#EF948C"/>
<ellipse cx="322.514" cy="199.942" rx="39.0525" ry="47.1869" fill="#EF948C"/>
<ellipse cx="358.04" cy="203.381" rx="13.8116" ry="13.8115" fill="#EF948C"/>
<path d="M279.735 202.924C279.733 200.514 281.177 198.338 283.399 197.403C283.929 197.202 284.524 197.277 284.989 197.602C285.453 197.928 285.726 198.462 285.718 199.029V206.819C285.717 207.418 285.407 207.974 284.899 208.29C284.391 208.606 283.755 208.639 283.218 208.376C281.091 207.396 279.73 205.266 279.735 202.924Z" fill="#E87A74"/>
<path d="M364.555 202.899C364.555 205.307 363.111 207.48 360.891 208.414C360.361 208.617 359.765 208.544 359.299 208.22C358.834 207.896 358.559 207.362 358.565 206.794V199.004C358.568 198.406 358.878 197.85 359.385 197.533C359.892 197.216 360.527 197.181 361.066 197.441C363.197 198.421 364.56 200.554 364.555 202.899Z" fill="#E87A74"/>
<ellipse cx="307.996" cy="205.375" rx="2.96988" ry="2.96989" fill="#2B2137"/>
<circle cx="337.026" cy="205.375" r="2.96989" fill="#2B2137"/>
<path d="M331.123 216.242C331.139 218.517 330.237 220.703 328.622 222.307C328.422 222.507 328.222 222.688 327.997 222.869C326.448 224.149 324.504 224.854 322.495 224.864H322.145C320.31 224.881 318.517 224.321 317.018 223.263C314.979 221.829 313.669 219.574 313.435 217.092C313.41 216.855 313.398 216.617 313.398 216.379C313.393 215.94 313.567 215.518 313.879 215.21C314.194 214.894 314.621 214.716 315.067 214.716L329.416 214.604C329.861 214.592 330.291 214.758 330.612 215.066C330.933 215.374 331.117 215.797 331.123 216.242Z" fill="#962F4A"/>
<path d="M322.32 223.545C322.329 223.987 322.289 224.43 322.201 224.864H322.158C317.673 224.931 313.886 221.549 313.448 217.086C314.071 216.9 314.717 216.803 315.367 216.798C317.185 216.768 318.939 217.463 320.244 218.728C321.548 219.994 322.295 221.727 322.32 223.545Z" fill="#E1617F"/>
<path d="M329.104 214.585C329.054 216.26 326.44 217.624 323.208 217.655C319.975 217.686 317.343 216.354 317.268 214.679L329.104 214.585Z" fill="white"/>
<path d="M318.762 224.214C319.841 224.645 320.996 224.858 322.157 224.839H322.508C323.696 224.829 324.87 224.578 325.959 224.101C323.714 222.853 320.976 222.886 318.762 224.189L318.762 224.214Z" fill="white"/>
<path d="M398.35 472.749L376.022 520.522C375.197 522.286 373.099 523.048 371.334 522.224L233.126 457.629C218.169 450.639 211.711 432.847 218.702 417.891C225.688 402.944 243.463 396.483 258.417 403.456L396.625 468.051C398.39 468.876 399.152 470.974 398.327 472.739L398.35 472.749Z" fill="#8CB7CB"/>
<path d="M326.969 469.873C329.567 471.087 330.689 474.177 329.475 476.775C328.26 479.374 325.17 480.495 322.572 479.281L261.103 450.552C258.505 449.338 257.383 446.248 258.597 443.65C259.812 441.052 262.902 439.93 265.5 441.144L326.969 469.873Z" fill="#A1D1E2"/>
<path d="M380.123 511.774L376.022 520.527C375.63 521.375 374.915 522.031 374.037 522.351C373.159 522.67 372.19 522.626 371.345 522.228L233.105 457.641C224.67 453.705 218.552 446.062 216.558 436.971C214.563 427.88 216.92 418.378 222.932 411.273C218.502 425.538 225.287 440.882 238.819 447.205L377.06 511.805C378.031 512.268 379.162 512.256 380.123 511.774Z" fill="#A1D1E2"/>
<path d="M366.378 369.174C358.072 373.436 347.884 370.157 343.622 361.851C339.361 353.545 342.64 343.357 350.946 339.095L401.08 313.374C409.386 309.113 419.574 312.392 423.835 320.698C428.096 329.004 424.818 339.192 416.511 343.453L366.378 369.174Z" fill="#EF948C"/>
<ellipse cx="348.993" cy="356.306" rx="17.8819" ry="22.6837" transform="rotate(-70.85 348.993 356.306)" fill="#EF948C"/>
<path d="M351.512 369.413C354.54 368.49 357.267 366.779 359.416 364.455L371.183 358.39L408.459 339.27C412.456 337.228 415.475 333.678 416.849 329.405C418.223 325.132 417.838 320.488 415.781 316.499C414.895 314.763 413.712 313.195 412.286 311.866C419.31 313.31 424.655 319.033 425.616 326.139C426.577 333.245 422.944 340.183 416.556 343.441L367.481 368.613C362.329 374.365 352.588 376.422 343.097 373.146C340.357 372.199 337.782 370.832 335.463 369.094C340.645 370.893 346.263 371.005 351.512 369.413Z" fill="#E87A74"/>
<rect x="253.043" y="314.129" width="144.768" height="108.179" rx="20.44" fill="#3F2A3C"/>
<path d="M397.812 326.916V409.529C397.812 412.919 396.464 416.171 394.066 418.568C391.668 420.964 388.416 422.31 385.025 422.308H265.855C262.464 422.31 259.212 420.964 256.814 418.568C254.416 416.171 253.068 412.919 253.068 409.529V401.094H291.164C339.184 401.08 378.104 362.149 378.104 314.129H385.025C392.087 314.129 397.812 319.854 397.812 326.916Z" fill="#2B2137"/>
<path d="M335.256 362.635C335.253 366.953 332.064 370.606 327.786 371.19C323.508 371.775 319.456 369.113 318.293 364.955C322.938 364.784 326.615 360.968 326.615 356.32C326.614 355.539 326.509 354.761 326.303 354.007H326.615C331.383 354.007 335.249 357.868 335.256 362.635Z" fill="#418682"/>
<circle cx="348.643" cy="171.375" r="23.2152" fill="#6C4A67"/>
<ellipse cx="289.914" cy="179.334" rx="19.3824" ry="19.3824" fill="#6C4A67"/>
<ellipse cx="324.039" cy="152.761" rx="30.9869" ry="30.9869" fill="#6C4A67"/>
<path d="M363.848 275.233C355.376 284.724 339.908 291.07 322.239 291.07C304.194 291.07 288.445 284.449 280.098 274.627C280.623 274.07 281.142 273.526 281.679 272.995C282.574 272.094 283.511 271.213 284.48 270.369C286.506 268.589 288.663 266.965 290.933 265.511C291.346 265.236 291.758 264.979 292.183 264.729C295.11 262.929 298.197 261.406 301.406 260.177C314.859 255.005 329.778 255.16 343.122 260.609C345.943 261.757 348.662 263.142 351.25 264.748C352.181 265.311 353.088 265.911 353.988 266.536C357.597 269.049 360.905 271.967 363.848 275.233Z" fill="#EF948C"/>
<ellipse cx="342.809" cy="167.817" rx="15.062" ry="15.062" fill="#775674"/>
<ellipse cx="325.427" cy="152.761" rx="20.6892" ry="20.6892" fill="#775674"/>
</svg>
