<svg width="52" height="52" viewBox="0 0 52 52" fill="none" xmlns="http://www.w3.org/2000/svg">
<path d="M26.0001 0L24.5701 0.065L32.8251 8.32L35.7501 5.41667C42.7917 8.81833 47.8617 15.6867 48.6417 23.8333H51.8917C50.7867 10.4867 39.6284 0 26.0001 0ZM26.0001 8.66667C21.8184 8.66667 18.4167 12.0683 18.4167 16.25C18.4167 20.4317 21.8184 23.8333 26.0001 23.8333C30.1817 23.8333 33.5834 20.4317 33.5834 16.25C33.5834 12.0683 30.1817 8.66667 26.0001 8.66667ZM0.108398 28.1667C1.2134 41.5133 12.3717 52 26.0001 52L27.4301 51.935L19.1751 43.68L16.2501 46.5833C9.2084 43.2033 4.1384 36.3133 3.3584 28.1667H0.108398ZM26.0001 28.1667C17.6151 28.1667 10.8334 31.5683 10.8334 35.75V39H41.1667V35.75C41.1667 31.5683 34.3851 28.1667 26.0001 28.1667Z" fill="#022F38"/>
</svg>
