<svg width="42" height="42" viewBox="0 0 42 42" fill="none" xmlns="http://www.w3.org/2000/svg">
<path d="M27.447 19.425L25.557 21.357C24.045 22.869 23.1 24.15 23.1 27.3H18.9V26.25C18.9 23.919 19.845 21.819 21.357 20.307L23.961 17.661C24.738 16.905 25.2 15.855 25.2 14.7C25.2 13.5861 24.7575 12.5178 23.9698 11.7302C23.1822 10.9425 22.1139 10.5 21 10.5C19.8861 10.5 18.8178 10.9425 18.0302 11.7302C17.2425 12.5178 16.8 13.5861 16.8 14.7H12.6C12.6 12.4722 13.485 10.3356 15.0603 8.7603C16.6356 7.185 18.7722 6.3 21 6.3C23.2278 6.3 25.3644 7.185 26.9397 8.7603C28.515 10.3356 29.4 12.4722 29.4 14.7C29.397 16.4708 28.6951 18.1688 27.447 19.425ZM23.1 35.7H18.9V31.5H23.1V35.7ZM21 0C18.2422 0 15.5115 0.543181 12.9636 1.59853C10.4158 2.65388 8.10079 4.20073 6.15076 6.15076C2.21249 10.089 0 15.4305 0 21C0 26.5695 2.21249 31.911 6.15076 35.8492C8.10079 37.7993 10.4158 39.3461 12.9636 40.4015C15.5115 41.4568 18.2422 42 21 42C26.5695 42 31.911 39.7875 35.8492 35.8492C39.7875 31.911 42 26.5695 42 21C42 9.387 32.55 0 21 0Z" fill="#022F38"/>
</svg>
