<svg width="53" height="45" viewBox="0 0 53 45" fill="none" xmlns="http://www.w3.org/2000/svg">
<path d="M20 0C17.3478 0 14.8043 1.05357 12.9289 2.92893C11.0536 4.8043 10 7.34784 10 10C10 12.6522 11.0536 15.1957 12.9289 17.0711C14.8043 18.9464 17.3478 20 20 20C22.6522 20 25.1957 18.9464 27.0711 17.0711C28.9464 15.1957 30 12.6522 30 10C30 7.34784 28.9464 4.8043 27.0711 2.92893C25.1957 1.05357 22.6522 0 20 0ZM37.5 20C37.3472 19.9972 37.1983 20.0482 37.0795 20.1442C36.9606 20.2402 36.8794 20.375 36.85 20.525L36.375 23.825C35.625 24.15 34.9 24.55 34.25 25L31.15 23.75C30.875 23.75 30.55 23.75 30.375 24.075L27.875 28.4C27.725 28.675 27.775 29 28.025 29.2L30.675 31.25C30.5753 32.0803 30.5753 32.9197 30.675 33.75L28.025 35.8C27.9127 35.8963 27.8366 36.0281 27.8093 36.1736C27.782 36.3191 27.8052 36.4695 27.875 36.6L30.375 40.925C30.525 41.25 30.85 41.25 31.15 41.25L34.25 40C34.9 40.45 35.6 40.875 36.375 41.175L36.85 44.475C36.9 44.775 37.15 45 37.5 45H42.5C42.775 45 43.05 44.775 43.1 44.475L43.575 41.175C44.325 40.85 45 40.45 45.675 40L48.75 41.25C49.075 41.25 49.4 41.25 49.575 40.925L52.075 36.6C52.1448 36.4695 52.168 36.3191 52.1407 36.1736C52.1134 36.0281 52.0373 35.8963 51.925 35.8L49.25 33.75C49.3 33.325 49.35 32.925 49.35 32.5C49.35 32.075 49.325 31.675 49.25 31.25L51.9 29.2C52.0123 29.1037 52.0885 28.9718 52.1157 28.8264C52.143 28.6809 52.1198 28.5305 52.05 28.4L49.55 24.075C49.4 23.75 49.075 23.75 48.75 23.75L45.675 25C45 24.55 44.325 24.125 43.55 23.825L43.075 20.525C43.0592 20.3826 42.9922 20.2508 42.8864 20.1542C42.7806 20.0576 42.6433 20.0028 42.5 20H37.5ZM20 25C8.95 25 0 29.475 0 35V40H24.2C23.0842 37.657 22.5036 35.0951 22.5 32.5C22.5051 29.9883 23.0508 27.5071 24.1 25.225C22.775 25.075 21.4 25 20 25ZM40 28.75C42.075 28.75 43.75 30.425 43.75 32.5C43.75 34.575 42.075 36.25 40 36.25C37.9 36.25 36.25 34.575 36.25 32.5C36.25 30.425 37.925 28.75 40 28.75Z" fill="#022F38"/>
</svg>
