<svg width="46" height="46" viewBox="0 0 46 46" fill="none" xmlns="http://www.w3.org/2000/svg">
<path d="M23 39.56C17.25 39.56 12.167 36.616 9.2 32.2C9.269 27.6 18.4 25.07 23 25.07C27.6 25.07 36.731 27.6 36.8 32.2C35.2794 34.4641 33.2255 36.3197 30.819 37.6031C28.4125 38.8866 25.7273 39.5586 23 39.56ZM23 6.9C24.83 6.9 26.585 7.62696 27.879 8.92096C29.173 10.215 29.9 11.97 29.9 13.8C29.9 15.63 29.173 17.385 27.879 18.679C26.585 19.973 24.83 20.7 23 20.7C21.17 20.7 19.415 19.973 18.121 18.679C16.827 17.385 16.1 15.63 16.1 13.8C16.1 11.97 16.827 10.215 18.121 8.92096C19.415 7.62696 21.17 6.9 23 6.9ZM23 0C19.9796 0 16.9888 0.594913 14.1983 1.75077C11.4078 2.90663 8.87229 4.6008 6.73654 6.73654C2.42321 11.0499 0 16.9 0 23C0 29.1 2.42321 34.9501 6.73654 39.2635C8.87229 41.3992 11.4078 43.0934 14.1983 44.2492C16.9888 45.4051 19.9796 46 23 46C29.1 46 34.9501 43.5768 39.2635 39.2635C43.5768 34.9501 46 29.1 46 23C46 10.281 35.65 0 23 0Z" fill="#022F38"/>
</svg>
