<svg width="67" height="56" viewBox="0 0 67 56" fill="none" xmlns="http://www.w3.org/2000/svg">
<path d="M35 44.56C29.25 44.56 24.167 41.616 21.2 37.2C21.269 32.6 30.4 30.07 35 30.07C39.6 30.07 48.731 32.6 48.8 37.2C47.2794 39.4641 45.2255 41.3196 42.819 42.6031C40.4125 43.8866 37.7273 44.5586 35 44.56ZM35 11.9C36.83 11.9 38.585 12.627 39.879 13.921C41.173 15.215 41.9 16.97 41.9 18.8C41.9 20.63 41.173 22.385 39.879 23.679C38.585 24.973 36.83 25.7 35 25.7C33.17 25.7 31.415 24.973 30.121 23.679C28.827 22.385 28.1 20.63 28.1 18.8C28.1 16.97 28.827 15.215 30.121 13.921C31.415 12.627 33.17 11.9 35 11.9ZM35 5C31.9796 5 28.9888 5.59491 26.1983 6.75077C23.4078 7.90663 20.8723 9.6008 18.7365 11.7365C14.4232 16.0499 12 21.9 12 28C12 34.1 14.4232 39.9501 18.7365 44.2635C20.8723 46.3992 23.4078 48.0934 26.1983 49.2492C28.9888 50.4051 31.9796 51 35 51C41.1 51 46.9501 48.5768 51.2635 44.2635C55.5768 39.9501 58 34.1 58 28C58 15.281 47.65 5 35 5Z" fill="#626262"/>
</svg>
